<mxfile host="app.diagrams.net" modified="2023-04-27T03:35:07.257Z" agent="Mozilla/5.0 (Windows NT 10.0; Win64; x64) AppleWebKit/537.36 (KHTML, like Gecko) Chrome/112.0.0.0 Safari/537.36" etag="1-gtm_GFL4NeS9v2vqV_" version="21.2.1" type="device" pages="19">
  <diagram id="B_5j8affdxAL5BVsS-Dt" name="01 - mock">
    <mxGraphModel dx="1434" dy="764" grid="1" gridSize="10" guides="1" tooltips="1" connect="1" arrows="1" fold="1" page="1" pageScale="1" pageWidth="1920" pageHeight="1200" math="0" shadow="0">
      <root>
        <mxCell id="0" />
        <mxCell id="1" parent="0" />
        <mxCell id="95aFv72lJygQHD1vVjCq-2" value="" style="strokeWidth=1;shadow=0;dashed=0;align=center;html=1;shape=mxgraph.mockup.containers.browserWindow;rSize=0;strokeColor=#666666;strokeColor2=#008cff;strokeColor3=#c4c4c4;mainText=,;recursiveResize=0;" parent="1" vertex="1">
          <mxGeometry x="540" y="330" width="370" height="380" as="geometry" />
        </mxCell>
        <mxCell id="95aFv72lJygQHD1vVjCq-3" value="Page 1" style="strokeWidth=1;shadow=0;dashed=0;align=center;html=1;shape=mxgraph.mockup.containers.anchor;fontSize=17;fontColor=#666666;align=left;" parent="95aFv72lJygQHD1vVjCq-2" vertex="1">
          <mxGeometry x="60" y="12" width="110" height="26" as="geometry" />
        </mxCell>
        <mxCell id="95aFv72lJygQHD1vVjCq-4" value="" style="strokeWidth=1;shadow=0;dashed=0;align=center;html=1;shape=mxgraph.mockup.containers.anchor;rSize=0;fontSize=17;fontColor=#666666;align=left;" parent="95aFv72lJygQHD1vVjCq-2" vertex="1">
          <mxGeometry x="130" y="60" width="250" height="26" as="geometry" />
        </mxCell>
        <mxCell id="95aFv72lJygQHD1vVjCq-5" value="" style="rounded=0;whiteSpace=wrap;html=1;" parent="95aFv72lJygQHD1vVjCq-2" vertex="1">
          <mxGeometry y="110" width="370" height="40" as="geometry" />
        </mxCell>
        <mxCell id="95aFv72lJygQHD1vVjCq-6" value="App" style="text;html=1;strokeColor=none;fillColor=none;align=center;verticalAlign=middle;whiteSpace=wrap;rounded=0;" parent="95aFv72lJygQHD1vVjCq-2" vertex="1">
          <mxGeometry x="20" y="120" width="40" height="20" as="geometry" />
        </mxCell>
        <mxCell id="95aFv72lJygQHD1vVjCq-7" value="Login" style="text;html=1;strokeColor=none;fillColor=none;align=center;verticalAlign=middle;whiteSpace=wrap;rounded=0;" parent="95aFv72lJygQHD1vVjCq-2" vertex="1">
          <mxGeometry x="317.5" y="120" width="40" height="20" as="geometry" />
        </mxCell>
        <mxCell id="95aFv72lJygQHD1vVjCq-8" value="Welcome" style="text;html=1;strokeColor=none;fillColor=none;align=center;verticalAlign=middle;whiteSpace=wrap;rounded=0;fontSize=23;" parent="95aFv72lJygQHD1vVjCq-2" vertex="1">
          <mxGeometry x="165" y="180" width="40" height="20" as="geometry" />
        </mxCell>
        <mxCell id="95aFv72lJygQHD1vVjCq-10" value="See pricing" style="rounded=1;whiteSpace=wrap;html=1;" parent="95aFv72lJygQHD1vVjCq-2" vertex="1">
          <mxGeometry x="122.5" y="280" width="125" height="30" as="geometry" />
        </mxCell>
        <mxCell id="95aFv72lJygQHD1vVjCq-28" value="app.com/" style="text;html=1;strokeColor=none;fillColor=none;align=left;verticalAlign=middle;whiteSpace=wrap;rounded=0;fontSize=14;fontStyle=1" parent="95aFv72lJygQHD1vVjCq-2" vertex="1">
          <mxGeometry x="130" y="63" width="150" height="20" as="geometry" />
        </mxCell>
        <mxCell id="95aFv72lJygQHD1vVjCq-76" value="Use our awesome dashboard" style="text;html=1;strokeColor=none;fillColor=none;align=center;verticalAlign=middle;whiteSpace=wrap;rounded=0;fontSize=23;" parent="95aFv72lJygQHD1vVjCq-2" vertex="1">
          <mxGeometry x="82.5" y="220" width="205" height="20" as="geometry" />
        </mxCell>
        <mxCell id="95aFv72lJygQHD1vVjCq-11" value="" style="strokeWidth=1;shadow=0;dashed=0;align=center;html=1;shape=mxgraph.mockup.containers.browserWindow;rSize=0;strokeColor=#666666;strokeColor2=#008cff;strokeColor3=#c4c4c4;mainText=,;recursiveResize=0;" parent="1" vertex="1">
          <mxGeometry x="960" y="330" width="370" height="380" as="geometry" />
        </mxCell>
        <mxCell id="95aFv72lJygQHD1vVjCq-12" value="Page 1" style="strokeWidth=1;shadow=0;dashed=0;align=center;html=1;shape=mxgraph.mockup.containers.anchor;fontSize=17;fontColor=#666666;align=left;" parent="95aFv72lJygQHD1vVjCq-11" vertex="1">
          <mxGeometry x="60" y="12" width="110" height="26" as="geometry" />
        </mxCell>
        <mxCell id="95aFv72lJygQHD1vVjCq-13" value="" style="strokeWidth=1;shadow=0;dashed=0;align=center;html=1;shape=mxgraph.mockup.containers.anchor;rSize=0;fontSize=17;fontColor=#666666;align=left;" parent="95aFv72lJygQHD1vVjCq-11" vertex="1">
          <mxGeometry x="130" y="60" width="250" height="26" as="geometry" />
        </mxCell>
        <mxCell id="95aFv72lJygQHD1vVjCq-14" value="" style="rounded=0;whiteSpace=wrap;html=1;" parent="95aFv72lJygQHD1vVjCq-11" vertex="1">
          <mxGeometry y="110" width="370" height="40" as="geometry" />
        </mxCell>
        <mxCell id="95aFv72lJygQHD1vVjCq-15" value="App" style="text;html=1;strokeColor=none;fillColor=none;align=center;verticalAlign=middle;whiteSpace=wrap;rounded=0;" parent="95aFv72lJygQHD1vVjCq-11" vertex="1">
          <mxGeometry x="20" y="120" width="40" height="20" as="geometry" />
        </mxCell>
        <mxCell id="95aFv72lJygQHD1vVjCq-16" value="Login" style="text;html=1;strokeColor=none;fillColor=none;align=center;verticalAlign=middle;whiteSpace=wrap;rounded=0;" parent="95aFv72lJygQHD1vVjCq-11" vertex="1">
          <mxGeometry x="317.5" y="120" width="40" height="20" as="geometry" />
        </mxCell>
        <mxCell id="95aFv72lJygQHD1vVjCq-17" value="Pricing" style="text;html=1;strokeColor=none;fillColor=none;align=center;verticalAlign=middle;whiteSpace=wrap;rounded=0;fontSize=23;" parent="95aFv72lJygQHD1vVjCq-11" vertex="1">
          <mxGeometry x="165" y="180" width="40" height="20" as="geometry" />
        </mxCell>
        <mxCell id="95aFv72lJygQHD1vVjCq-24" value="" style="rounded=0;whiteSpace=wrap;html=1;fontSize=14;" parent="95aFv72lJygQHD1vVjCq-11" vertex="1">
          <mxGeometry x="50" y="220" width="120" height="100" as="geometry" />
        </mxCell>
        <mxCell id="95aFv72lJygQHD1vVjCq-20" value="Free" style="text;html=1;strokeColor=none;fillColor=none;align=center;verticalAlign=middle;whiteSpace=wrap;rounded=0;fontSize=17;" parent="95aFv72lJygQHD1vVjCq-11" vertex="1">
          <mxGeometry x="90" y="230" width="40" height="20" as="geometry" />
        </mxCell>
        <mxCell id="95aFv72lJygQHD1vVjCq-22" value="Sign Up" style="rounded=1;whiteSpace=wrap;html=1;fontSize=14;" parent="95aFv72lJygQHD1vVjCq-11" vertex="1">
          <mxGeometry x="62.5" y="280" width="95" height="30" as="geometry" />
        </mxCell>
        <mxCell id="95aFv72lJygQHD1vVjCq-25" value="" style="rounded=0;whiteSpace=wrap;html=1;fontSize=14;" parent="95aFv72lJygQHD1vVjCq-11" vertex="1">
          <mxGeometry x="205" y="220" width="120" height="100" as="geometry" />
        </mxCell>
        <mxCell id="95aFv72lJygQHD1vVjCq-26" value="$30/month" style="text;html=1;strokeColor=none;fillColor=none;align=center;verticalAlign=middle;whiteSpace=wrap;rounded=0;fontSize=17;" parent="95aFv72lJygQHD1vVjCq-11" vertex="1">
          <mxGeometry x="245" y="230" width="40" height="20" as="geometry" />
        </mxCell>
        <mxCell id="95aFv72lJygQHD1vVjCq-27" value="Sign Up" style="rounded=1;whiteSpace=wrap;html=1;fontSize=14;" parent="95aFv72lJygQHD1vVjCq-11" vertex="1">
          <mxGeometry x="217.5" y="280" width="95" height="30" as="geometry" />
        </mxCell>
        <mxCell id="95aFv72lJygQHD1vVjCq-29" value="app.com/pricing" style="text;html=1;strokeColor=none;fillColor=none;align=left;verticalAlign=middle;whiteSpace=wrap;rounded=0;fontSize=14;fontStyle=1" parent="95aFv72lJygQHD1vVjCq-11" vertex="1">
          <mxGeometry x="130" y="63" width="150" height="20" as="geometry" />
        </mxCell>
        <mxCell id="95aFv72lJygQHD1vVjCq-30" value="" style="strokeWidth=1;shadow=0;dashed=0;align=center;html=1;shape=mxgraph.mockup.containers.browserWindow;rSize=0;strokeColor=#666666;strokeColor2=#008cff;strokeColor3=#c4c4c4;mainText=,;recursiveResize=0;" parent="1" vertex="1">
          <mxGeometry x="1380" y="330" width="370" height="380" as="geometry" />
        </mxCell>
        <mxCell id="95aFv72lJygQHD1vVjCq-31" value="Page 1" style="strokeWidth=1;shadow=0;dashed=0;align=center;html=1;shape=mxgraph.mockup.containers.anchor;fontSize=17;fontColor=#666666;align=left;" parent="95aFv72lJygQHD1vVjCq-30" vertex="1">
          <mxGeometry x="60" y="12" width="110" height="26" as="geometry" />
        </mxCell>
        <mxCell id="95aFv72lJygQHD1vVjCq-32" value="" style="strokeWidth=1;shadow=0;dashed=0;align=center;html=1;shape=mxgraph.mockup.containers.anchor;rSize=0;fontSize=17;fontColor=#666666;align=left;" parent="95aFv72lJygQHD1vVjCq-30" vertex="1">
          <mxGeometry x="130" y="60" width="250" height="26" as="geometry" />
        </mxCell>
        <mxCell id="95aFv72lJygQHD1vVjCq-33" value="" style="rounded=0;whiteSpace=wrap;html=1;" parent="95aFv72lJygQHD1vVjCq-30" vertex="1">
          <mxGeometry y="110" width="370" height="40" as="geometry" />
        </mxCell>
        <mxCell id="95aFv72lJygQHD1vVjCq-34" value="App" style="text;html=1;strokeColor=none;fillColor=none;align=center;verticalAlign=middle;whiteSpace=wrap;rounded=0;" parent="95aFv72lJygQHD1vVjCq-30" vertex="1">
          <mxGeometry x="20" y="120" width="40" height="20" as="geometry" />
        </mxCell>
        <mxCell id="95aFv72lJygQHD1vVjCq-35" value="Login" style="text;html=1;strokeColor=none;fillColor=none;align=center;verticalAlign=middle;whiteSpace=wrap;rounded=0;" parent="95aFv72lJygQHD1vVjCq-30" vertex="1">
          <mxGeometry x="317.5" y="120" width="40" height="20" as="geometry" />
        </mxCell>
        <mxCell id="95aFv72lJygQHD1vVjCq-36" value="Sign In" style="text;html=1;strokeColor=none;fillColor=none;align=center;verticalAlign=middle;whiteSpace=wrap;rounded=0;fontSize=23;" parent="95aFv72lJygQHD1vVjCq-30" vertex="1">
          <mxGeometry x="142.5" y="170" width="85" height="20" as="geometry" />
        </mxCell>
        <mxCell id="95aFv72lJygQHD1vVjCq-43" value="app.com/auth/signin" style="text;html=1;strokeColor=none;fillColor=none;align=left;verticalAlign=middle;whiteSpace=wrap;rounded=0;fontSize=14;fontStyle=1" parent="95aFv72lJygQHD1vVjCq-30" vertex="1">
          <mxGeometry x="130" y="63" width="150" height="20" as="geometry" />
        </mxCell>
        <mxCell id="95aFv72lJygQHD1vVjCq-45" value="&lt;i style=&quot;font-size: 11px;&quot;&gt;Enter Email&lt;/i&gt;" style="rounded=0;whiteSpace=wrap;html=1;fontSize=11;align=left;spacingLeft=10;fontColor=#919191;" parent="95aFv72lJygQHD1vVjCq-30" vertex="1">
          <mxGeometry x="89" y="210" width="192" height="25" as="geometry" />
        </mxCell>
        <mxCell id="95aFv72lJygQHD1vVjCq-46" value="&lt;i style=&quot;font-size: 11px&quot;&gt;Enter Password&lt;/i&gt;" style="rounded=0;whiteSpace=wrap;html=1;fontSize=11;align=left;spacingLeft=10;fontColor=#919191;" parent="95aFv72lJygQHD1vVjCq-30" vertex="1">
          <mxGeometry x="88" y="245" width="192" height="25" as="geometry" />
        </mxCell>
        <mxCell id="95aFv72lJygQHD1vVjCq-48" value="Sign In" style="rounded=1;whiteSpace=wrap;html=1;fontSize=11;align=center;" parent="95aFv72lJygQHD1vVjCq-30" vertex="1">
          <mxGeometry x="124" y="280" width="120" height="30" as="geometry" />
        </mxCell>
        <mxCell id="95aFv72lJygQHD1vVjCq-49" value="" style="strokeWidth=1;shadow=0;dashed=0;align=center;html=1;shape=mxgraph.mockup.containers.browserWindow;rSize=0;strokeColor=#666666;strokeColor2=#008cff;strokeColor3=#c4c4c4;mainText=,;recursiveResize=0;" parent="1" vertex="1">
          <mxGeometry x="1810" y="330" width="370" height="380" as="geometry" />
        </mxCell>
        <mxCell id="95aFv72lJygQHD1vVjCq-50" value="Page 1" style="strokeWidth=1;shadow=0;dashed=0;align=center;html=1;shape=mxgraph.mockup.containers.anchor;fontSize=17;fontColor=#666666;align=left;" parent="95aFv72lJygQHD1vVjCq-49" vertex="1">
          <mxGeometry x="60" y="12" width="110" height="26" as="geometry" />
        </mxCell>
        <mxCell id="95aFv72lJygQHD1vVjCq-51" value="" style="strokeWidth=1;shadow=0;dashed=0;align=center;html=1;shape=mxgraph.mockup.containers.anchor;rSize=0;fontSize=17;fontColor=#666666;align=left;" parent="95aFv72lJygQHD1vVjCq-49" vertex="1">
          <mxGeometry x="130" y="60" width="250" height="26" as="geometry" />
        </mxCell>
        <mxCell id="95aFv72lJygQHD1vVjCq-52" value="" style="rounded=0;whiteSpace=wrap;html=1;" parent="95aFv72lJygQHD1vVjCq-49" vertex="1">
          <mxGeometry y="110" width="370" height="40" as="geometry" />
        </mxCell>
        <mxCell id="95aFv72lJygQHD1vVjCq-53" value="App" style="text;html=1;strokeColor=none;fillColor=none;align=center;verticalAlign=middle;whiteSpace=wrap;rounded=0;" parent="95aFv72lJygQHD1vVjCq-49" vertex="1">
          <mxGeometry x="20" y="120" width="40" height="20" as="geometry" />
        </mxCell>
        <mxCell id="95aFv72lJygQHD1vVjCq-54" value="Login" style="text;html=1;strokeColor=none;fillColor=none;align=center;verticalAlign=middle;whiteSpace=wrap;rounded=0;" parent="95aFv72lJygQHD1vVjCq-49" vertex="1">
          <mxGeometry x="317.5" y="120" width="40" height="20" as="geometry" />
        </mxCell>
        <mxCell id="95aFv72lJygQHD1vVjCq-55" value="Sign Up" style="text;html=1;strokeColor=none;fillColor=none;align=center;verticalAlign=middle;whiteSpace=wrap;rounded=0;fontSize=23;" parent="95aFv72lJygQHD1vVjCq-49" vertex="1">
          <mxGeometry x="142.5" y="170" width="85" height="20" as="geometry" />
        </mxCell>
        <mxCell id="95aFv72lJygQHD1vVjCq-56" value="app.com/auth/signup" style="text;html=1;strokeColor=none;fillColor=none;align=left;verticalAlign=middle;whiteSpace=wrap;rounded=0;fontSize=14;fontStyle=1" parent="95aFv72lJygQHD1vVjCq-49" vertex="1">
          <mxGeometry x="130" y="63" width="150" height="20" as="geometry" />
        </mxCell>
        <mxCell id="95aFv72lJygQHD1vVjCq-57" value="&lt;i style=&quot;font-size: 11px;&quot;&gt;Enter Email&lt;/i&gt;" style="rounded=0;whiteSpace=wrap;html=1;fontSize=11;align=left;spacingLeft=10;fontColor=#919191;" parent="95aFv72lJygQHD1vVjCq-49" vertex="1">
          <mxGeometry x="89" y="210" width="192" height="25" as="geometry" />
        </mxCell>
        <mxCell id="95aFv72lJygQHD1vVjCq-58" value="&lt;i style=&quot;font-size: 11px&quot;&gt;Enter Password&lt;/i&gt;" style="rounded=0;whiteSpace=wrap;html=1;fontSize=11;align=left;spacingLeft=10;fontColor=#919191;" parent="95aFv72lJygQHD1vVjCq-49" vertex="1">
          <mxGeometry x="88" y="245" width="192" height="25" as="geometry" />
        </mxCell>
        <mxCell id="95aFv72lJygQHD1vVjCq-59" value="Sign Up" style="rounded=1;whiteSpace=wrap;html=1;fontSize=11;align=center;" parent="95aFv72lJygQHD1vVjCq-49" vertex="1">
          <mxGeometry x="124" y="320" width="120" height="30" as="geometry" />
        </mxCell>
        <mxCell id="95aFv72lJygQHD1vVjCq-60" value="&lt;i style=&quot;font-size: 11px&quot;&gt;Enter Password Again&lt;/i&gt;" style="rounded=0;whiteSpace=wrap;html=1;fontSize=11;align=left;spacingLeft=10;fontColor=#919191;" parent="95aFv72lJygQHD1vVjCq-49" vertex="1">
          <mxGeometry x="88" y="280" width="192" height="25" as="geometry" />
        </mxCell>
        <mxCell id="95aFv72lJygQHD1vVjCq-61" value="" style="strokeWidth=1;shadow=0;dashed=0;align=center;html=1;shape=mxgraph.mockup.containers.browserWindow;rSize=0;strokeColor=#666666;strokeColor2=#008cff;strokeColor3=#c4c4c4;mainText=,;recursiveResize=0;" parent="1" vertex="1">
          <mxGeometry x="2230" y="330" width="370" height="380" as="geometry" />
        </mxCell>
        <mxCell id="95aFv72lJygQHD1vVjCq-62" value="Page 1" style="strokeWidth=1;shadow=0;dashed=0;align=center;html=1;shape=mxgraph.mockup.containers.anchor;fontSize=17;fontColor=#666666;align=left;" parent="95aFv72lJygQHD1vVjCq-61" vertex="1">
          <mxGeometry x="60" y="12" width="110" height="26" as="geometry" />
        </mxCell>
        <mxCell id="95aFv72lJygQHD1vVjCq-63" value="" style="strokeWidth=1;shadow=0;dashed=0;align=center;html=1;shape=mxgraph.mockup.containers.anchor;rSize=0;fontSize=17;fontColor=#666666;align=left;" parent="95aFv72lJygQHD1vVjCq-61" vertex="1">
          <mxGeometry x="130" y="60" width="250" height="26" as="geometry" />
        </mxCell>
        <mxCell id="95aFv72lJygQHD1vVjCq-64" value="" style="rounded=0;whiteSpace=wrap;html=1;" parent="95aFv72lJygQHD1vVjCq-61" vertex="1">
          <mxGeometry y="110" width="370" height="40" as="geometry" />
        </mxCell>
        <mxCell id="95aFv72lJygQHD1vVjCq-65" value="App" style="text;html=1;strokeColor=none;fillColor=none;align=center;verticalAlign=middle;whiteSpace=wrap;rounded=0;" parent="95aFv72lJygQHD1vVjCq-61" vertex="1">
          <mxGeometry x="20" y="120" width="40" height="20" as="geometry" />
        </mxCell>
        <mxCell id="95aFv72lJygQHD1vVjCq-66" value="Logout" style="text;html=1;strokeColor=none;fillColor=none;align=center;verticalAlign=middle;whiteSpace=wrap;rounded=0;" parent="95aFv72lJygQHD1vVjCq-61" vertex="1">
          <mxGeometry x="317.5" y="120" width="40" height="20" as="geometry" />
        </mxCell>
        <mxCell id="95aFv72lJygQHD1vVjCq-68" value="app.com/dashboard" style="text;html=1;strokeColor=none;fillColor=none;align=left;verticalAlign=middle;whiteSpace=wrap;rounded=0;fontSize=14;fontStyle=1" parent="95aFv72lJygQHD1vVjCq-61" vertex="1">
          <mxGeometry x="130" y="63" width="150" height="20" as="geometry" />
        </mxCell>
        <mxCell id="95aFv72lJygQHD1vVjCq-73" value="Pretty charts and tables" style="ellipse;shape=cloud;whiteSpace=wrap;html=1;fontSize=15;fontColor=#333333;align=center;fontStyle=2;fillColor=#f5f5f5;strokeColor=#666666;" parent="95aFv72lJygQHD1vVjCq-61" vertex="1">
          <mxGeometry x="25" y="200" width="320" height="100" as="geometry" />
        </mxCell>
      </root>
    </mxGraphModel>
  </diagram>
  <diagram name="02 - names" id="fBKS0hSn0UvbY07uYVn3">
    <mxGraphModel dx="1434" dy="764" grid="1" gridSize="10" guides="1" tooltips="1" connect="1" arrows="1" fold="1" page="1" pageScale="1" pageWidth="1920" pageHeight="1200" math="0" shadow="0">
      <root>
        <mxCell id="d3RocSvk8lITE-VltD9F-0" />
        <mxCell id="d3RocSvk8lITE-VltD9F-1" parent="d3RocSvk8lITE-VltD9F-0" />
        <mxCell id="d3RocSvk8lITE-VltD9F-2" value="" style="strokeWidth=1;shadow=0;dashed=0;align=center;html=1;shape=mxgraph.mockup.containers.browserWindow;rSize=0;strokeColor=#666666;strokeColor2=#008cff;strokeColor3=#c4c4c4;mainText=,;recursiveResize=0;" parent="d3RocSvk8lITE-VltD9F-1" vertex="1">
          <mxGeometry x="540" y="330" width="370" height="380" as="geometry" />
        </mxCell>
        <mxCell id="d3RocSvk8lITE-VltD9F-3" value="Page 1" style="strokeWidth=1;shadow=0;dashed=0;align=center;html=1;shape=mxgraph.mockup.containers.anchor;fontSize=17;fontColor=#666666;align=left;" parent="d3RocSvk8lITE-VltD9F-2" vertex="1">
          <mxGeometry x="60" y="12" width="110" height="26" as="geometry" />
        </mxCell>
        <mxCell id="d3RocSvk8lITE-VltD9F-4" value="" style="strokeWidth=1;shadow=0;dashed=0;align=center;html=1;shape=mxgraph.mockup.containers.anchor;rSize=0;fontSize=17;fontColor=#666666;align=left;" parent="d3RocSvk8lITE-VltD9F-2" vertex="1">
          <mxGeometry x="130" y="60" width="250" height="26" as="geometry" />
        </mxCell>
        <mxCell id="d3RocSvk8lITE-VltD9F-5" value="" style="rounded=0;whiteSpace=wrap;html=1;" parent="d3RocSvk8lITE-VltD9F-2" vertex="1">
          <mxGeometry y="110" width="370" height="40" as="geometry" />
        </mxCell>
        <mxCell id="d3RocSvk8lITE-VltD9F-6" value="App" style="text;html=1;strokeColor=none;fillColor=none;align=center;verticalAlign=middle;whiteSpace=wrap;rounded=0;" parent="d3RocSvk8lITE-VltD9F-2" vertex="1">
          <mxGeometry x="20" y="120" width="40" height="20" as="geometry" />
        </mxCell>
        <mxCell id="d3RocSvk8lITE-VltD9F-7" value="Login" style="text;html=1;strokeColor=none;fillColor=none;align=center;verticalAlign=middle;whiteSpace=wrap;rounded=0;" parent="d3RocSvk8lITE-VltD9F-2" vertex="1">
          <mxGeometry x="317.5" y="120" width="40" height="20" as="geometry" />
        </mxCell>
        <mxCell id="d3RocSvk8lITE-VltD9F-8" value="Welcome" style="text;html=1;strokeColor=none;fillColor=none;align=center;verticalAlign=middle;whiteSpace=wrap;rounded=0;fontSize=23;" parent="d3RocSvk8lITE-VltD9F-2" vertex="1">
          <mxGeometry x="165" y="180" width="40" height="20" as="geometry" />
        </mxCell>
        <mxCell id="d3RocSvk8lITE-VltD9F-9" value="See pricing" style="rounded=1;whiteSpace=wrap;html=1;" parent="d3RocSvk8lITE-VltD9F-2" vertex="1">
          <mxGeometry x="122.5" y="280" width="125" height="30" as="geometry" />
        </mxCell>
        <mxCell id="d3RocSvk8lITE-VltD9F-10" value="app.com/" style="text;html=1;strokeColor=none;fillColor=none;align=left;verticalAlign=middle;whiteSpace=wrap;rounded=0;fontSize=14;fontStyle=1" parent="d3RocSvk8lITE-VltD9F-2" vertex="1">
          <mxGeometry x="130" y="63" width="150" height="20" as="geometry" />
        </mxCell>
        <mxCell id="d3RocSvk8lITE-VltD9F-11" value="Use our awesome dashboard" style="text;html=1;strokeColor=none;fillColor=none;align=center;verticalAlign=middle;whiteSpace=wrap;rounded=0;fontSize=23;" parent="d3RocSvk8lITE-VltD9F-2" vertex="1">
          <mxGeometry x="82.5" y="220" width="205" height="20" as="geometry" />
        </mxCell>
        <mxCell id="d3RocSvk8lITE-VltD9F-12" value="" style="strokeWidth=1;shadow=0;dashed=0;align=center;html=1;shape=mxgraph.mockup.containers.browserWindow;rSize=0;strokeColor=#666666;strokeColor2=#008cff;strokeColor3=#c4c4c4;mainText=,;recursiveResize=0;" parent="d3RocSvk8lITE-VltD9F-1" vertex="1">
          <mxGeometry x="960" y="330" width="370" height="380" as="geometry" />
        </mxCell>
        <mxCell id="d3RocSvk8lITE-VltD9F-13" value="Page 1" style="strokeWidth=1;shadow=0;dashed=0;align=center;html=1;shape=mxgraph.mockup.containers.anchor;fontSize=17;fontColor=#666666;align=left;" parent="d3RocSvk8lITE-VltD9F-12" vertex="1">
          <mxGeometry x="60" y="12" width="110" height="26" as="geometry" />
        </mxCell>
        <mxCell id="d3RocSvk8lITE-VltD9F-14" value="" style="strokeWidth=1;shadow=0;dashed=0;align=center;html=1;shape=mxgraph.mockup.containers.anchor;rSize=0;fontSize=17;fontColor=#666666;align=left;" parent="d3RocSvk8lITE-VltD9F-12" vertex="1">
          <mxGeometry x="130" y="60" width="250" height="26" as="geometry" />
        </mxCell>
        <mxCell id="d3RocSvk8lITE-VltD9F-15" value="" style="rounded=0;whiteSpace=wrap;html=1;" parent="d3RocSvk8lITE-VltD9F-12" vertex="1">
          <mxGeometry y="110" width="370" height="40" as="geometry" />
        </mxCell>
        <mxCell id="d3RocSvk8lITE-VltD9F-16" value="App" style="text;html=1;strokeColor=none;fillColor=none;align=center;verticalAlign=middle;whiteSpace=wrap;rounded=0;" parent="d3RocSvk8lITE-VltD9F-12" vertex="1">
          <mxGeometry x="20" y="120" width="40" height="20" as="geometry" />
        </mxCell>
        <mxCell id="d3RocSvk8lITE-VltD9F-17" value="Login" style="text;html=1;strokeColor=none;fillColor=none;align=center;verticalAlign=middle;whiteSpace=wrap;rounded=0;" parent="d3RocSvk8lITE-VltD9F-12" vertex="1">
          <mxGeometry x="317.5" y="120" width="40" height="20" as="geometry" />
        </mxCell>
        <mxCell id="d3RocSvk8lITE-VltD9F-18" value="Pricing" style="text;html=1;strokeColor=none;fillColor=none;align=center;verticalAlign=middle;whiteSpace=wrap;rounded=0;fontSize=23;" parent="d3RocSvk8lITE-VltD9F-12" vertex="1">
          <mxGeometry x="165" y="180" width="40" height="20" as="geometry" />
        </mxCell>
        <mxCell id="d3RocSvk8lITE-VltD9F-19" value="" style="rounded=0;whiteSpace=wrap;html=1;fontSize=14;" parent="d3RocSvk8lITE-VltD9F-12" vertex="1">
          <mxGeometry x="50" y="220" width="120" height="100" as="geometry" />
        </mxCell>
        <mxCell id="d3RocSvk8lITE-VltD9F-20" value="Free" style="text;html=1;strokeColor=none;fillColor=none;align=center;verticalAlign=middle;whiteSpace=wrap;rounded=0;fontSize=17;" parent="d3RocSvk8lITE-VltD9F-12" vertex="1">
          <mxGeometry x="90" y="230" width="40" height="20" as="geometry" />
        </mxCell>
        <mxCell id="d3RocSvk8lITE-VltD9F-21" value="Sign Up" style="rounded=1;whiteSpace=wrap;html=1;fontSize=14;" parent="d3RocSvk8lITE-VltD9F-12" vertex="1">
          <mxGeometry x="62.5" y="280" width="95" height="30" as="geometry" />
        </mxCell>
        <mxCell id="d3RocSvk8lITE-VltD9F-22" value="" style="rounded=0;whiteSpace=wrap;html=1;fontSize=14;" parent="d3RocSvk8lITE-VltD9F-12" vertex="1">
          <mxGeometry x="205" y="220" width="120" height="100" as="geometry" />
        </mxCell>
        <mxCell id="d3RocSvk8lITE-VltD9F-23" value="$30/month" style="text;html=1;strokeColor=none;fillColor=none;align=center;verticalAlign=middle;whiteSpace=wrap;rounded=0;fontSize=17;" parent="d3RocSvk8lITE-VltD9F-12" vertex="1">
          <mxGeometry x="245" y="230" width="40" height="20" as="geometry" />
        </mxCell>
        <mxCell id="d3RocSvk8lITE-VltD9F-24" value="Sign Up" style="rounded=1;whiteSpace=wrap;html=1;fontSize=14;" parent="d3RocSvk8lITE-VltD9F-12" vertex="1">
          <mxGeometry x="217.5" y="280" width="95" height="30" as="geometry" />
        </mxCell>
        <mxCell id="d3RocSvk8lITE-VltD9F-25" value="app.com/pricing" style="text;html=1;strokeColor=none;fillColor=none;align=left;verticalAlign=middle;whiteSpace=wrap;rounded=0;fontSize=14;fontStyle=1" parent="d3RocSvk8lITE-VltD9F-12" vertex="1">
          <mxGeometry x="130" y="63" width="150" height="20" as="geometry" />
        </mxCell>
        <mxCell id="d3RocSvk8lITE-VltD9F-26" value="" style="strokeWidth=1;shadow=0;dashed=0;align=center;html=1;shape=mxgraph.mockup.containers.browserWindow;rSize=0;strokeColor=#666666;strokeColor2=#008cff;strokeColor3=#c4c4c4;mainText=,;recursiveResize=0;" parent="d3RocSvk8lITE-VltD9F-1" vertex="1">
          <mxGeometry x="1380" y="330" width="370" height="380" as="geometry" />
        </mxCell>
        <mxCell id="d3RocSvk8lITE-VltD9F-27" value="Page 1" style="strokeWidth=1;shadow=0;dashed=0;align=center;html=1;shape=mxgraph.mockup.containers.anchor;fontSize=17;fontColor=#666666;align=left;" parent="d3RocSvk8lITE-VltD9F-26" vertex="1">
          <mxGeometry x="60" y="12" width="110" height="26" as="geometry" />
        </mxCell>
        <mxCell id="d3RocSvk8lITE-VltD9F-28" value="" style="strokeWidth=1;shadow=0;dashed=0;align=center;html=1;shape=mxgraph.mockup.containers.anchor;rSize=0;fontSize=17;fontColor=#666666;align=left;" parent="d3RocSvk8lITE-VltD9F-26" vertex="1">
          <mxGeometry x="130" y="60" width="250" height="26" as="geometry" />
        </mxCell>
        <mxCell id="d3RocSvk8lITE-VltD9F-29" value="" style="rounded=0;whiteSpace=wrap;html=1;" parent="d3RocSvk8lITE-VltD9F-26" vertex="1">
          <mxGeometry y="110" width="370" height="40" as="geometry" />
        </mxCell>
        <mxCell id="d3RocSvk8lITE-VltD9F-30" value="App" style="text;html=1;strokeColor=none;fillColor=none;align=center;verticalAlign=middle;whiteSpace=wrap;rounded=0;" parent="d3RocSvk8lITE-VltD9F-26" vertex="1">
          <mxGeometry x="20" y="120" width="40" height="20" as="geometry" />
        </mxCell>
        <mxCell id="d3RocSvk8lITE-VltD9F-31" value="Login" style="text;html=1;strokeColor=none;fillColor=none;align=center;verticalAlign=middle;whiteSpace=wrap;rounded=0;" parent="d3RocSvk8lITE-VltD9F-26" vertex="1">
          <mxGeometry x="317.5" y="120" width="40" height="20" as="geometry" />
        </mxCell>
        <mxCell id="d3RocSvk8lITE-VltD9F-32" value="Sign In" style="text;html=1;strokeColor=none;fillColor=none;align=center;verticalAlign=middle;whiteSpace=wrap;rounded=0;fontSize=23;" parent="d3RocSvk8lITE-VltD9F-26" vertex="1">
          <mxGeometry x="142.5" y="170" width="85" height="20" as="geometry" />
        </mxCell>
        <mxCell id="d3RocSvk8lITE-VltD9F-33" value="app.com/auth/signin" style="text;html=1;strokeColor=none;fillColor=none;align=left;verticalAlign=middle;whiteSpace=wrap;rounded=0;fontSize=14;fontStyle=1" parent="d3RocSvk8lITE-VltD9F-26" vertex="1">
          <mxGeometry x="130" y="63" width="150" height="20" as="geometry" />
        </mxCell>
        <mxCell id="d3RocSvk8lITE-VltD9F-34" value="&lt;i style=&quot;font-size: 11px;&quot;&gt;Enter Email&lt;/i&gt;" style="rounded=0;whiteSpace=wrap;html=1;fontSize=11;align=left;spacingLeft=10;fontColor=#919191;" parent="d3RocSvk8lITE-VltD9F-26" vertex="1">
          <mxGeometry x="89" y="210" width="192" height="25" as="geometry" />
        </mxCell>
        <mxCell id="d3RocSvk8lITE-VltD9F-35" value="&lt;i style=&quot;font-size: 11px&quot;&gt;Enter Password&lt;/i&gt;" style="rounded=0;whiteSpace=wrap;html=1;fontSize=11;align=left;spacingLeft=10;fontColor=#919191;" parent="d3RocSvk8lITE-VltD9F-26" vertex="1">
          <mxGeometry x="88" y="245" width="192" height="25" as="geometry" />
        </mxCell>
        <mxCell id="d3RocSvk8lITE-VltD9F-36" value="Sign In" style="rounded=1;whiteSpace=wrap;html=1;fontSize=11;align=center;" parent="d3RocSvk8lITE-VltD9F-26" vertex="1">
          <mxGeometry x="124" y="280" width="120" height="30" as="geometry" />
        </mxCell>
        <mxCell id="d3RocSvk8lITE-VltD9F-37" value="" style="strokeWidth=1;shadow=0;dashed=0;align=center;html=1;shape=mxgraph.mockup.containers.browserWindow;rSize=0;strokeColor=#666666;strokeColor2=#008cff;strokeColor3=#c4c4c4;mainText=,;recursiveResize=0;" parent="d3RocSvk8lITE-VltD9F-1" vertex="1">
          <mxGeometry x="1810" y="330" width="370" height="380" as="geometry" />
        </mxCell>
        <mxCell id="d3RocSvk8lITE-VltD9F-38" value="Page 1" style="strokeWidth=1;shadow=0;dashed=0;align=center;html=1;shape=mxgraph.mockup.containers.anchor;fontSize=17;fontColor=#666666;align=left;" parent="d3RocSvk8lITE-VltD9F-37" vertex="1">
          <mxGeometry x="60" y="12" width="110" height="26" as="geometry" />
        </mxCell>
        <mxCell id="d3RocSvk8lITE-VltD9F-39" value="" style="strokeWidth=1;shadow=0;dashed=0;align=center;html=1;shape=mxgraph.mockup.containers.anchor;rSize=0;fontSize=17;fontColor=#666666;align=left;" parent="d3RocSvk8lITE-VltD9F-37" vertex="1">
          <mxGeometry x="130" y="60" width="250" height="26" as="geometry" />
        </mxCell>
        <mxCell id="d3RocSvk8lITE-VltD9F-40" value="" style="rounded=0;whiteSpace=wrap;html=1;" parent="d3RocSvk8lITE-VltD9F-37" vertex="1">
          <mxGeometry y="110" width="370" height="40" as="geometry" />
        </mxCell>
        <mxCell id="d3RocSvk8lITE-VltD9F-41" value="App" style="text;html=1;strokeColor=none;fillColor=none;align=center;verticalAlign=middle;whiteSpace=wrap;rounded=0;" parent="d3RocSvk8lITE-VltD9F-37" vertex="1">
          <mxGeometry x="20" y="120" width="40" height="20" as="geometry" />
        </mxCell>
        <mxCell id="d3RocSvk8lITE-VltD9F-42" value="Login" style="text;html=1;strokeColor=none;fillColor=none;align=center;verticalAlign=middle;whiteSpace=wrap;rounded=0;" parent="d3RocSvk8lITE-VltD9F-37" vertex="1">
          <mxGeometry x="317.5" y="120" width="40" height="20" as="geometry" />
        </mxCell>
        <mxCell id="d3RocSvk8lITE-VltD9F-43" value="Sign Up" style="text;html=1;strokeColor=none;fillColor=none;align=center;verticalAlign=middle;whiteSpace=wrap;rounded=0;fontSize=23;" parent="d3RocSvk8lITE-VltD9F-37" vertex="1">
          <mxGeometry x="142.5" y="170" width="85" height="20" as="geometry" />
        </mxCell>
        <mxCell id="d3RocSvk8lITE-VltD9F-44" value="app.com/auth/signup" style="text;html=1;strokeColor=none;fillColor=none;align=left;verticalAlign=middle;whiteSpace=wrap;rounded=0;fontSize=14;fontStyle=1" parent="d3RocSvk8lITE-VltD9F-37" vertex="1">
          <mxGeometry x="130" y="63" width="150" height="20" as="geometry" />
        </mxCell>
        <mxCell id="d3RocSvk8lITE-VltD9F-45" value="&lt;i style=&quot;font-size: 11px;&quot;&gt;Enter Email&lt;/i&gt;" style="rounded=0;whiteSpace=wrap;html=1;fontSize=11;align=left;spacingLeft=10;fontColor=#919191;" parent="d3RocSvk8lITE-VltD9F-37" vertex="1">
          <mxGeometry x="89" y="210" width="192" height="25" as="geometry" />
        </mxCell>
        <mxCell id="d3RocSvk8lITE-VltD9F-46" value="&lt;i style=&quot;font-size: 11px&quot;&gt;Enter Password&lt;/i&gt;" style="rounded=0;whiteSpace=wrap;html=1;fontSize=11;align=left;spacingLeft=10;fontColor=#919191;" parent="d3RocSvk8lITE-VltD9F-37" vertex="1">
          <mxGeometry x="88" y="245" width="192" height="25" as="geometry" />
        </mxCell>
        <mxCell id="d3RocSvk8lITE-VltD9F-47" value="Sign Up" style="rounded=1;whiteSpace=wrap;html=1;fontSize=11;align=center;" parent="d3RocSvk8lITE-VltD9F-37" vertex="1">
          <mxGeometry x="124" y="320" width="120" height="30" as="geometry" />
        </mxCell>
        <mxCell id="d3RocSvk8lITE-VltD9F-48" value="&lt;i style=&quot;font-size: 11px&quot;&gt;Enter Password Again&lt;/i&gt;" style="rounded=0;whiteSpace=wrap;html=1;fontSize=11;align=left;spacingLeft=10;fontColor=#919191;" parent="d3RocSvk8lITE-VltD9F-37" vertex="1">
          <mxGeometry x="88" y="280" width="192" height="25" as="geometry" />
        </mxCell>
        <mxCell id="d3RocSvk8lITE-VltD9F-49" value="" style="strokeWidth=1;shadow=0;dashed=0;align=center;html=1;shape=mxgraph.mockup.containers.browserWindow;rSize=0;strokeColor=#666666;strokeColor2=#008cff;strokeColor3=#c4c4c4;mainText=,;recursiveResize=0;" parent="d3RocSvk8lITE-VltD9F-1" vertex="1">
          <mxGeometry x="2230" y="330" width="370" height="380" as="geometry" />
        </mxCell>
        <mxCell id="d3RocSvk8lITE-VltD9F-50" value="Page 1" style="strokeWidth=1;shadow=0;dashed=0;align=center;html=1;shape=mxgraph.mockup.containers.anchor;fontSize=17;fontColor=#666666;align=left;" parent="d3RocSvk8lITE-VltD9F-49" vertex="1">
          <mxGeometry x="60" y="12" width="110" height="26" as="geometry" />
        </mxCell>
        <mxCell id="d3RocSvk8lITE-VltD9F-51" value="" style="strokeWidth=1;shadow=0;dashed=0;align=center;html=1;shape=mxgraph.mockup.containers.anchor;rSize=0;fontSize=17;fontColor=#666666;align=left;" parent="d3RocSvk8lITE-VltD9F-49" vertex="1">
          <mxGeometry x="130" y="60" width="250" height="26" as="geometry" />
        </mxCell>
        <mxCell id="d3RocSvk8lITE-VltD9F-52" value="" style="rounded=0;whiteSpace=wrap;html=1;" parent="d3RocSvk8lITE-VltD9F-49" vertex="1">
          <mxGeometry y="110" width="370" height="40" as="geometry" />
        </mxCell>
        <mxCell id="d3RocSvk8lITE-VltD9F-53" value="App" style="text;html=1;strokeColor=none;fillColor=none;align=center;verticalAlign=middle;whiteSpace=wrap;rounded=0;" parent="d3RocSvk8lITE-VltD9F-49" vertex="1">
          <mxGeometry x="20" y="120" width="40" height="20" as="geometry" />
        </mxCell>
        <mxCell id="d3RocSvk8lITE-VltD9F-54" value="Logout" style="text;html=1;strokeColor=none;fillColor=none;align=center;verticalAlign=middle;whiteSpace=wrap;rounded=0;" parent="d3RocSvk8lITE-VltD9F-49" vertex="1">
          <mxGeometry x="317.5" y="120" width="40" height="20" as="geometry" />
        </mxCell>
        <mxCell id="d3RocSvk8lITE-VltD9F-55" value="app.com/dashboard" style="text;html=1;strokeColor=none;fillColor=none;align=left;verticalAlign=middle;whiteSpace=wrap;rounded=0;fontSize=14;fontStyle=1" parent="d3RocSvk8lITE-VltD9F-49" vertex="1">
          <mxGeometry x="130" y="63" width="150" height="20" as="geometry" />
        </mxCell>
        <mxCell id="d3RocSvk8lITE-VltD9F-56" value="Pretty charts and tables" style="ellipse;shape=cloud;whiteSpace=wrap;html=1;fontSize=15;fontColor=#333333;align=center;fontStyle=2;fillColor=#f5f5f5;strokeColor=#666666;" parent="d3RocSvk8lITE-VltD9F-49" vertex="1">
          <mxGeometry x="20" y="200" width="320" height="100" as="geometry" />
        </mxCell>
        <mxCell id="d3RocSvk8lITE-VltD9F-57" value="Home Page" style="rounded=0;whiteSpace=wrap;html=1;fontSize=23;align=center;fillColor=#dae8fc;strokeColor=#6c8ebf;fontStyle=1" parent="d3RocSvk8lITE-VltD9F-1" vertex="1">
          <mxGeometry x="620" y="270" width="210" height="50" as="geometry" />
        </mxCell>
        <mxCell id="d3RocSvk8lITE-VltD9F-58" value="Pricing Page" style="rounded=0;whiteSpace=wrap;html=1;fontSize=23;align=center;fillColor=#dae8fc;strokeColor=#6c8ebf;fontStyle=1" parent="d3RocSvk8lITE-VltD9F-1" vertex="1">
          <mxGeometry x="1040" y="270" width="210" height="50" as="geometry" />
        </mxCell>
        <mxCell id="d3RocSvk8lITE-VltD9F-59" value="Sign In Page" style="rounded=0;whiteSpace=wrap;html=1;fontSize=23;align=center;fillColor=#dae8fc;strokeColor=#6c8ebf;fontStyle=1" parent="d3RocSvk8lITE-VltD9F-1" vertex="1">
          <mxGeometry x="1460" y="270" width="210" height="50" as="geometry" />
        </mxCell>
        <mxCell id="d3RocSvk8lITE-VltD9F-60" value="Sign Up Page" style="rounded=0;whiteSpace=wrap;html=1;fontSize=23;align=center;fillColor=#dae8fc;strokeColor=#6c8ebf;fontStyle=1" parent="d3RocSvk8lITE-VltD9F-1" vertex="1">
          <mxGeometry x="1890" y="270" width="210" height="50" as="geometry" />
        </mxCell>
        <mxCell id="d3RocSvk8lITE-VltD9F-61" value="Dashboard Page" style="rounded=0;whiteSpace=wrap;html=1;fontSize=23;align=center;fillColor=#dae8fc;strokeColor=#6c8ebf;fontStyle=1" parent="d3RocSvk8lITE-VltD9F-1" vertex="1">
          <mxGeometry x="2310" y="270" width="210" height="50" as="geometry" />
        </mxCell>
      </root>
    </mxGraphModel>
  </diagram>
  <diagram id="GO9bTPnNxpFf5U0PmF7m" name="03 - pages">
    <mxGraphModel dx="715" dy="441" grid="1" gridSize="10" guides="1" tooltips="1" connect="1" arrows="1" fold="1" page="1" pageScale="1" pageWidth="1920" pageHeight="1200" math="0" shadow="0">
      <root>
        <mxCell id="sr1X-dd-AI2F4gwPx3wh-0" />
        <mxCell id="sr1X-dd-AI2F4gwPx3wh-1" parent="sr1X-dd-AI2F4gwPx3wh-0" />
        <mxCell id="Swz6n2n6KYVHUV1GdxFV-0" value="Home Page" style="rounded=0;whiteSpace=wrap;html=1;fontSize=23;align=center;fillColor=#dae8fc;strokeColor=#6c8ebf;fontStyle=1" vertex="1" parent="sr1X-dd-AI2F4gwPx3wh-1">
          <mxGeometry x="620" y="270" width="210" height="50" as="geometry" />
        </mxCell>
        <mxCell id="Swz6n2n6KYVHUV1GdxFV-1" value="Pricing Page" style="rounded=0;whiteSpace=wrap;html=1;fontSize=23;align=center;fillColor=#dae8fc;strokeColor=#6c8ebf;fontStyle=1" vertex="1" parent="sr1X-dd-AI2F4gwPx3wh-1">
          <mxGeometry x="620" y="330" width="210" height="50" as="geometry" />
        </mxCell>
        <mxCell id="Swz6n2n6KYVHUV1GdxFV-2" value="Sign In Page" style="rounded=0;whiteSpace=wrap;html=1;fontSize=23;align=center;fillColor=#dae8fc;strokeColor=#6c8ebf;fontStyle=1" vertex="1" parent="sr1X-dd-AI2F4gwPx3wh-1">
          <mxGeometry x="620" y="390" width="210" height="50" as="geometry" />
        </mxCell>
        <mxCell id="Swz6n2n6KYVHUV1GdxFV-3" value="Sign Up Page" style="rounded=0;whiteSpace=wrap;html=1;fontSize=23;align=center;fillColor=#dae8fc;strokeColor=#6c8ebf;fontStyle=1" vertex="1" parent="sr1X-dd-AI2F4gwPx3wh-1">
          <mxGeometry x="620" y="450" width="210" height="50" as="geometry" />
        </mxCell>
        <mxCell id="Swz6n2n6KYVHUV1GdxFV-4" value="Dashboard Page" style="rounded=0;whiteSpace=wrap;html=1;fontSize=23;align=center;fillColor=#dae8fc;strokeColor=#6c8ebf;fontStyle=1" vertex="1" parent="sr1X-dd-AI2F4gwPx3wh-1">
          <mxGeometry x="620" y="510" width="210" height="50" as="geometry" />
        </mxCell>
      </root>
    </mxGraphModel>
  </diagram>
  <diagram name="04 - apps" id="Llu2AW7TGKKA1wGzcbFo">
    <mxGraphModel dx="683" dy="421" grid="1" gridSize="10" guides="1" tooltips="1" connect="1" arrows="1" fold="1" page="1" pageScale="1" pageWidth="1920" pageHeight="1200" math="0" shadow="0">
      <root>
        <mxCell id="PX9gRG0At0d7KPQFpmnl-0" />
        <mxCell id="PX9gRG0At0d7KPQFpmnl-1" parent="PX9gRG0At0d7KPQFpmnl-0" />
        <mxCell id="PX9gRG0At0d7KPQFpmnl-2" value="Home Page" style="rounded=0;whiteSpace=wrap;html=1;fontSize=23;align=center;fillColor=#dae8fc;strokeColor=#6c8ebf;fontStyle=1" vertex="1" parent="PX9gRG0At0d7KPQFpmnl-1">
          <mxGeometry x="620" y="250" width="210" height="50" as="geometry" />
        </mxCell>
        <mxCell id="PX9gRG0At0d7KPQFpmnl-3" value="Pricing Page" style="rounded=0;whiteSpace=wrap;html=1;fontSize=23;align=center;fillColor=#dae8fc;strokeColor=#6c8ebf;fontStyle=1" vertex="1" parent="PX9gRG0At0d7KPQFpmnl-1">
          <mxGeometry x="620" y="310" width="210" height="50" as="geometry" />
        </mxCell>
        <mxCell id="PX9gRG0At0d7KPQFpmnl-4" value="Sign In Page" style="rounded=0;whiteSpace=wrap;html=1;fontSize=23;align=center;fillColor=#d5e8d4;strokeColor=#82b366;fontStyle=1" vertex="1" parent="PX9gRG0At0d7KPQFpmnl-1">
          <mxGeometry x="620" y="390" width="210" height="50" as="geometry" />
        </mxCell>
        <mxCell id="PX9gRG0At0d7KPQFpmnl-5" value="Sign Up Page" style="rounded=0;whiteSpace=wrap;html=1;fontSize=23;align=center;fillColor=#d5e8d4;strokeColor=#82b366;fontStyle=1" vertex="1" parent="PX9gRG0At0d7KPQFpmnl-1">
          <mxGeometry x="620" y="450" width="210" height="50" as="geometry" />
        </mxCell>
        <mxCell id="PX9gRG0At0d7KPQFpmnl-6" value="Dashboard Page" style="rounded=0;whiteSpace=wrap;html=1;fontSize=23;align=center;fillColor=#ffe6cc;strokeColor=#d79b00;fontStyle=1" vertex="1" parent="PX9gRG0At0d7KPQFpmnl-1">
          <mxGeometry x="620" y="540" width="210" height="50" as="geometry" />
        </mxCell>
        <mxCell id="PX9gRG0At0d7KPQFpmnl-7" value="" style="shape=curlyBracket;whiteSpace=wrap;html=1;rounded=1;fontSize=23;fontColor=#000000;align=center;" vertex="1" parent="PX9gRG0At0d7KPQFpmnl-1">
          <mxGeometry x="580" y="250" width="30" height="110" as="geometry" />
        </mxCell>
        <mxCell id="PX9gRG0At0d7KPQFpmnl-8" value="" style="shape=curlyBracket;whiteSpace=wrap;html=1;rounded=1;fontSize=23;fontColor=#000000;align=center;" vertex="1" parent="PX9gRG0At0d7KPQFpmnl-1">
          <mxGeometry x="580" y="390" width="30" height="110" as="geometry" />
        </mxCell>
        <mxCell id="PX9gRG0At0d7KPQFpmnl-9" value="" style="shape=curlyBracket;whiteSpace=wrap;html=1;rounded=1;fontSize=23;fontColor=#000000;align=center;" vertex="1" parent="PX9gRG0At0d7KPQFpmnl-1">
          <mxGeometry x="580" y="540" width="30" height="50" as="geometry" />
        </mxCell>
        <mxCell id="PX9gRG0At0d7KPQFpmnl-10" value="Marketing" style="text;html=1;strokeColor=none;fillColor=none;align=right;verticalAlign=middle;whiteSpace=wrap;rounded=0;fontSize=17;fontColor=#000000;" vertex="1" parent="PX9gRG0At0d7KPQFpmnl-1">
          <mxGeometry x="460" y="282.5" width="120" height="45" as="geometry" />
        </mxCell>
        <mxCell id="PX9gRG0At0d7KPQFpmnl-11" value="Authentication" style="text;html=1;strokeColor=none;fillColor=none;align=right;verticalAlign=middle;whiteSpace=wrap;rounded=0;fontSize=17;fontColor=#000000;" vertex="1" parent="PX9gRG0At0d7KPQFpmnl-1">
          <mxGeometry x="460" y="422.5" width="120" height="45" as="geometry" />
        </mxCell>
        <mxCell id="PX9gRG0At0d7KPQFpmnl-12" value="Dashboard" style="text;html=1;strokeColor=none;fillColor=none;align=right;verticalAlign=middle;whiteSpace=wrap;rounded=0;fontSize=17;fontColor=#000000;" vertex="1" parent="PX9gRG0At0d7KPQFpmnl-1">
          <mxGeometry x="460" y="540" width="120" height="45" as="geometry" />
        </mxCell>
      </root>
    </mxGraphModel>
  </diagram>
  <diagram id="ZseFLwYUfKslGyu54zcP" name="05 - tech">
    <mxGraphModel dx="668" dy="412" grid="1" gridSize="10" guides="1" tooltips="1" connect="1" arrows="1" fold="1" page="1" pageScale="1" pageWidth="1920" pageHeight="1200" math="0" shadow="0">
      <root>
        <mxCell id="xcE6jVVGHH3AuU4ZkM1x-0" />
        <mxCell id="xcE6jVVGHH3AuU4ZkM1x-1" parent="xcE6jVVGHH3AuU4ZkM1x-0" />
        <mxCell id="OiRyiBP2o3aaicw5AFvg-0" value="Marketing" style="rounded=0;whiteSpace=wrap;html=1;fontSize=23;align=center;fillColor=#dae8fc;strokeColor=#6c8ebf;fontStyle=1" vertex="1" parent="xcE6jVVGHH3AuU4ZkM1x-1">
          <mxGeometry x="560" y="420" width="180" height="50" as="geometry" />
        </mxCell>
        <mxCell id="aNjSTZAzPxN5RH6Etr8p-0" value="Authentication" style="rounded=0;whiteSpace=wrap;html=1;fontSize=23;align=center;fillColor=#d5e8d4;strokeColor=#82b366;fontStyle=1" vertex="1" parent="xcE6jVVGHH3AuU4ZkM1x-1">
          <mxGeometry x="760" y="420" width="180" height="50" as="geometry" />
        </mxCell>
        <mxCell id="xIhSY9sJkO8NdffJY24w-0" value="Dashboard" style="rounded=0;whiteSpace=wrap;html=1;fontSize=23;align=center;fillColor=#ffe6cc;strokeColor=#d79b00;fontStyle=1" vertex="1" parent="xcE6jVVGHH3AuU4ZkM1x-1">
          <mxGeometry x="960" y="420" width="180" height="50" as="geometry" />
        </mxCell>
        <mxCell id="xIhSY9sJkO8NdffJY24w-2" style="edgeStyle=orthogonalEdgeStyle;rounded=0;orthogonalLoop=1;jettySize=auto;html=1;exitX=0.5;exitY=1;exitDx=0;exitDy=0;fontSize=17;fontColor=#000000;" edge="1" parent="xcE6jVVGHH3AuU4ZkM1x-1" source="xIhSY9sJkO8NdffJY24w-1" target="OiRyiBP2o3aaicw5AFvg-0">
          <mxGeometry relative="1" as="geometry" />
        </mxCell>
        <mxCell id="xIhSY9sJkO8NdffJY24w-3" style="edgeStyle=orthogonalEdgeStyle;rounded=0;orthogonalLoop=1;jettySize=auto;html=1;exitX=0.5;exitY=1;exitDx=0;exitDy=0;fontSize=17;fontColor=#000000;" edge="1" parent="xcE6jVVGHH3AuU4ZkM1x-1" source="xIhSY9sJkO8NdffJY24w-1" target="aNjSTZAzPxN5RH6Etr8p-0">
          <mxGeometry relative="1" as="geometry" />
        </mxCell>
        <mxCell id="xIhSY9sJkO8NdffJY24w-4" style="edgeStyle=orthogonalEdgeStyle;rounded=0;orthogonalLoop=1;jettySize=auto;html=1;exitX=0.5;exitY=1;exitDx=0;exitDy=0;fontSize=17;fontColor=#000000;" edge="1" parent="xcE6jVVGHH3AuU4ZkM1x-1" source="xIhSY9sJkO8NdffJY24w-1" target="xIhSY9sJkO8NdffJY24w-0">
          <mxGeometry relative="1" as="geometry" />
        </mxCell>
        <mxCell id="xIhSY9sJkO8NdffJY24w-1" value="Container" style="rounded=0;whiteSpace=wrap;html=1;fontSize=23;align=center;fillColor=#e1d5e7;strokeColor=#9673a6;fontStyle=1" vertex="1" parent="xcE6jVVGHH3AuU4ZkM1x-1">
          <mxGeometry x="722.5" y="290" width="255" height="50" as="geometry" />
        </mxCell>
      </root>
    </mxGraphModel>
  </diagram>
  <diagram name="06 - libs" id="jNklwCcPADBq2R4_35Jw">
    <mxGraphModel dx="578" dy="356" grid="1" gridSize="10" guides="1" tooltips="1" connect="1" arrows="1" fold="1" page="1" pageScale="1" pageWidth="1920" pageHeight="1200" math="0" shadow="0">
      <root>
        <mxCell id="QOEEkew6BioKIvBKgZbQ-0" />
        <mxCell id="QOEEkew6BioKIvBKgZbQ-1" parent="QOEEkew6BioKIvBKgZbQ-0" />
        <mxCell id="QOEEkew6BioKIvBKgZbQ-2" value="Marketing" style="rounded=0;whiteSpace=wrap;html=1;fontSize=23;align=center;fillColor=#dae8fc;strokeColor=#6c8ebf;fontStyle=0" vertex="1" parent="QOEEkew6BioKIvBKgZbQ-1">
          <mxGeometry x="560" y="420" width="180" height="50" as="geometry" />
        </mxCell>
        <mxCell id="QOEEkew6BioKIvBKgZbQ-3" value="Authentication" style="rounded=0;whiteSpace=wrap;html=1;fontSize=23;align=center;fillColor=#d5e8d4;strokeColor=#82b366;fontStyle=0" vertex="1" parent="QOEEkew6BioKIvBKgZbQ-1">
          <mxGeometry x="760" y="420" width="180" height="50" as="geometry" />
        </mxCell>
        <mxCell id="QOEEkew6BioKIvBKgZbQ-4" value="Dashboard" style="rounded=0;whiteSpace=wrap;html=1;fontSize=23;align=center;fillColor=#ffe6cc;strokeColor=#d79b00;fontStyle=0" vertex="1" parent="QOEEkew6BioKIvBKgZbQ-1">
          <mxGeometry x="960" y="420" width="180" height="50" as="geometry" />
        </mxCell>
        <mxCell id="QOEEkew6BioKIvBKgZbQ-5" style="edgeStyle=orthogonalEdgeStyle;rounded=0;orthogonalLoop=1;jettySize=auto;html=1;exitX=0.5;exitY=1;exitDx=0;exitDy=0;fontSize=17;fontColor=#000000;" edge="1" parent="QOEEkew6BioKIvBKgZbQ-1" source="QOEEkew6BioKIvBKgZbQ-8" target="QOEEkew6BioKIvBKgZbQ-2">
          <mxGeometry relative="1" as="geometry" />
        </mxCell>
        <mxCell id="QOEEkew6BioKIvBKgZbQ-6" style="edgeStyle=orthogonalEdgeStyle;rounded=0;orthogonalLoop=1;jettySize=auto;html=1;exitX=0.5;exitY=1;exitDx=0;exitDy=0;fontSize=17;fontColor=#000000;" edge="1" parent="QOEEkew6BioKIvBKgZbQ-1" source="QOEEkew6BioKIvBKgZbQ-8" target="QOEEkew6BioKIvBKgZbQ-3">
          <mxGeometry relative="1" as="geometry" />
        </mxCell>
        <mxCell id="QOEEkew6BioKIvBKgZbQ-7" style="edgeStyle=orthogonalEdgeStyle;rounded=0;orthogonalLoop=1;jettySize=auto;html=1;exitX=0.5;exitY=1;exitDx=0;exitDy=0;fontSize=17;fontColor=#000000;" edge="1" parent="QOEEkew6BioKIvBKgZbQ-1" source="QOEEkew6BioKIvBKgZbQ-8" target="QOEEkew6BioKIvBKgZbQ-4">
          <mxGeometry relative="1" as="geometry" />
        </mxCell>
        <mxCell id="QOEEkew6BioKIvBKgZbQ-8" value="Container" style="rounded=0;whiteSpace=wrap;html=1;fontSize=23;align=center;fillColor=#e1d5e7;strokeColor=#9673a6;fontStyle=0" vertex="1" parent="QOEEkew6BioKIvBKgZbQ-1">
          <mxGeometry x="722.5" y="290" width="255" height="50" as="geometry" />
        </mxCell>
        <mxCell id="QOEEkew6BioKIvBKgZbQ-9" value="React" style="text;html=1;strokeColor=none;fillColor=none;align=center;verticalAlign=middle;whiteSpace=wrap;rounded=0;fontSize=25;fontColor=#000000;fontStyle=1" vertex="1" parent="QOEEkew6BioKIvBKgZbQ-1">
          <mxGeometry x="780" y="264" width="140" height="20" as="geometry" />
        </mxCell>
        <mxCell id="QOEEkew6BioKIvBKgZbQ-10" value="React" style="text;html=1;strokeColor=none;fillColor=none;align=center;verticalAlign=middle;whiteSpace=wrap;rounded=0;fontSize=25;fontColor=#000000;fontStyle=1" vertex="1" parent="QOEEkew6BioKIvBKgZbQ-1">
          <mxGeometry x="580" y="480" width="140" height="20" as="geometry" />
        </mxCell>
        <mxCell id="QOEEkew6BioKIvBKgZbQ-11" value="React" style="text;html=1;strokeColor=none;fillColor=none;align=center;verticalAlign=middle;whiteSpace=wrap;rounded=0;fontSize=25;fontColor=#000000;fontStyle=1" vertex="1" parent="QOEEkew6BioKIvBKgZbQ-1">
          <mxGeometry x="780" y="480" width="140" height="20" as="geometry" />
        </mxCell>
        <mxCell id="QOEEkew6BioKIvBKgZbQ-12" value="Vue&amp;nbsp;" style="text;html=1;strokeColor=none;fillColor=none;align=center;verticalAlign=middle;whiteSpace=wrap;rounded=0;fontSize=25;fontColor=#000000;fontStyle=1" vertex="1" parent="QOEEkew6BioKIvBKgZbQ-1">
          <mxGeometry x="980" y="480" width="140" height="20" as="geometry" />
        </mxCell>
      </root>
    </mxGraphModel>
  </diagram>
  <diagram id="IKNpTRA5QrlabaPflHwl" name="07 - what">
    <mxGraphModel dx="601" dy="370" grid="1" gridSize="10" guides="1" tooltips="1" connect="1" arrows="1" fold="1" page="1" pageScale="1" pageWidth="1920" pageHeight="1200" math="0" shadow="0">
      <root>
        <mxCell id="i68p6ikYkSjoCjXfaRGe-0" />
        <mxCell id="i68p6ikYkSjoCjXfaRGe-1" parent="i68p6ikYkSjoCjXfaRGe-0" />
        <mxCell id="i68p6ikYkSjoCjXfaRGe-4" style="edgeStyle=orthogonalEdgeStyle;rounded=0;orthogonalLoop=1;jettySize=auto;html=1;exitX=0.5;exitY=1;exitDx=0;exitDy=0;entryX=0.5;entryY=0;entryDx=0;entryDy=0;fontSize=26;fontColor=#000000;" edge="1" parent="i68p6ikYkSjoCjXfaRGe-1" source="i68p6ikYkSjoCjXfaRGe-2" target="i68p6ikYkSjoCjXfaRGe-3">
          <mxGeometry relative="1" as="geometry" />
        </mxCell>
        <mxCell id="i68p6ikYkSjoCjXfaRGe-2" value="What about Angular, Svelte, WebComponents, ldfgaksjdf?" style="rounded=0;whiteSpace=wrap;html=1;fontSize=26;fontColor=#333333;align=center;fillColor=#f5f5f5;strokeColor=#666666;" vertex="1" parent="i68p6ikYkSjoCjXfaRGe-1">
          <mxGeometry x="590" y="330" width="420" height="110" as="geometry" />
        </mxCell>
        <mxCell id="i68p6ikYkSjoCjXfaRGe-3" value="Integration techniques are identical" style="rounded=0;whiteSpace=wrap;html=1;fontSize=23;align=center;fillColor=#dae8fc;strokeColor=#6c8ebf;" vertex="1" parent="i68p6ikYkSjoCjXfaRGe-1">
          <mxGeometry x="590" y="490" width="420" height="110" as="geometry" />
        </mxCell>
      </root>
    </mxGraphModel>
  </diagram>
  <diagram id="T-UkR4m1Bn28GPMqXrZd" name="09 - tech">
    <mxGraphModel dx="715" dy="441" grid="1" gridSize="10" guides="1" tooltips="1" connect="1" arrows="1" fold="1" page="1" pageScale="1" pageWidth="1920" pageHeight="1200" math="0" shadow="0">
      <root>
        <mxCell id="e7B9o0q8Fg9xqEHFOGyU-0" />
        <mxCell id="e7B9o0q8Fg9xqEHFOGyU-1" parent="e7B9o0q8Fg9xqEHFOGyU-0" />
        <mxCell id="4YmB_eYra1sonfpgj6Ld-3" style="edgeStyle=orthogonalEdgeStyle;rounded=0;orthogonalLoop=1;jettySize=auto;html=1;exitX=0.5;exitY=1;exitDx=0;exitDy=0;fontSize=23;fontColor=#000000;strokeWidth=5;" edge="1" parent="e7B9o0q8Fg9xqEHFOGyU-1" source="4YmB_eYra1sonfpgj6Ld-0" target="4YmB_eYra1sonfpgj6Ld-2">
          <mxGeometry relative="1" as="geometry" />
        </mxCell>
        <mxCell id="4YmB_eYra1sonfpgj6Ld-0" value="Some blog posts, articles, videos, etc will tell you to do things differently" style="rounded=0;whiteSpace=wrap;html=1;fontSize=26;fontColor=#333333;align=center;fillColor=#f5f5f5;strokeColor=#666666;" vertex="1" parent="e7B9o0q8Fg9xqEHFOGyU-1">
          <mxGeometry x="580" y="360" width="500" height="100" as="geometry" />
        </mxCell>
        <mxCell id="4YmB_eYra1sonfpgj6Ld-1" value="Huge Disclaimer" style="text;html=1;strokeColor=none;fillColor=none;align=center;verticalAlign=middle;whiteSpace=wrap;rounded=0;fontSize=23;fontColor=#000000;fontStyle=2" vertex="1" parent="e7B9o0q8Fg9xqEHFOGyU-1">
          <mxGeometry x="710" y="330" width="240" height="20" as="geometry" />
        </mxCell>
        <mxCell id="4YmB_eYra1sonfpgj6Ld-2" value="The architecture for this project is determined by its &lt;i&gt;requirements&lt;/i&gt;" style="rounded=0;whiteSpace=wrap;html=1;fontSize=26;fontColor=#333333;align=center;fillColor=#f5f5f5;strokeColor=#666666;" vertex="1" parent="e7B9o0q8Fg9xqEHFOGyU-1">
          <mxGeometry x="580" y="500" width="500" height="100" as="geometry" />
        </mxCell>
        <mxCell id="4YmB_eYra1sonfpgj6Ld-4" style="edgeStyle=orthogonalEdgeStyle;rounded=0;orthogonalLoop=1;jettySize=auto;html=1;exitX=0.5;exitY=1;exitDx=0;exitDy=0;fontSize=23;fontColor=#000000;strokeWidth=5;" edge="1" parent="e7B9o0q8Fg9xqEHFOGyU-1" target="4YmB_eYra1sonfpgj6Ld-5">
          <mxGeometry relative="1" as="geometry">
            <mxPoint x="830" y="600" as="sourcePoint" />
          </mxGeometry>
        </mxCell>
        <mxCell id="4YmB_eYra1sonfpgj6Ld-5" value="You need to think about the requirements of your app to decide if this architecture will work for you" style="rounded=0;whiteSpace=wrap;html=1;fontSize=26;fontColor=#333333;align=center;fillColor=#f5f5f5;strokeColor=#666666;" vertex="1" parent="e7B9o0q8Fg9xqEHFOGyU-1">
          <mxGeometry x="580" y="640" width="500" height="100" as="geometry" />
        </mxCell>
      </root>
    </mxGraphModel>
  </diagram>
  <diagram id="qxfD9bxEx-PJ0HcW8fMi" name="16 - ex">
    <mxGraphModel dx="715" dy="441" grid="1" gridSize="10" guides="1" tooltips="1" connect="1" arrows="1" fold="1" page="1" pageScale="1" pageWidth="1920" pageHeight="1200" math="0" shadow="0">
      <root>
        <mxCell id="TiCRVs4qSI-DCDPuVoD1-0" />
        <mxCell id="TiCRVs4qSI-DCDPuVoD1-1" parent="TiCRVs4qSI-DCDPuVoD1-0" />
        <mxCell id="vUgTNQP78ihkGe0Klj-O-0" value="Some blog posts, articles, videos, etc will tell you to do things differently" style="rounded=0;whiteSpace=wrap;html=1;fontSize=26;fontColor=#333333;align=center;fillColor=#f5f5f5;strokeColor=#666666;" vertex="1" parent="TiCRVs4qSI-DCDPuVoD1-1">
          <mxGeometry x="390" y="380" width="230" height="170" as="geometry" />
        </mxCell>
        <mxCell id="vUgTNQP78ihkGe0Klj-O-1" value="" style="shape=curlyBracket;whiteSpace=wrap;html=1;rounded=1;fontSize=24;fontColor=#000000;align=center;" vertex="1" parent="TiCRVs4qSI-DCDPuVoD1-1">
          <mxGeometry x="620" y="370" width="50" height="190" as="geometry" />
        </mxCell>
        <mxCell id="vUgTNQP78ihkGe0Klj-O-2" value="&lt;i style=&quot;font-size: 15px;&quot;&gt;&quot;Share state between apps with redux&quot;&lt;/i&gt;" style="rounded=0;whiteSpace=wrap;html=1;fontSize=15;fontColor=#000000;align=center;" vertex="1" parent="TiCRVs4qSI-DCDPuVoD1-1">
          <mxGeometry x="680" y="370" width="370" height="40" as="geometry" />
        </mxCell>
        <mxCell id="vUgTNQP78ihkGe0Klj-O-3" value="Examples" style="text;html=1;strokeColor=none;fillColor=none;align=center;verticalAlign=middle;whiteSpace=wrap;rounded=0;fontSize=24;fontColor=#000000;" vertex="1" parent="TiCRVs4qSI-DCDPuVoD1-1">
          <mxGeometry x="845" y="340" width="40" height="20" as="geometry" />
        </mxCell>
        <mxCell id="vUgTNQP78ihkGe0Klj-O-4" value="&lt;i&gt;&quot;The container must be written with webcomponents&quot;&lt;/i&gt;" style="rounded=0;whiteSpace=wrap;html=1;fontSize=15;fontColor=#000000;align=center;" vertex="1" parent="TiCRVs4qSI-DCDPuVoD1-1">
          <mxGeometry x="680" y="420" width="370" height="40" as="geometry" />
        </mxCell>
        <mxCell id="vUgTNQP78ihkGe0Klj-O-5" value="&lt;i&gt;&quot;Each microfrontend can be a React component that is directly used by another app&quot;&lt;/i&gt;" style="rounded=0;whiteSpace=wrap;html=1;fontSize=15;fontColor=#000000;align=center;" vertex="1" parent="TiCRVs4qSI-DCDPuVoD1-1">
          <mxGeometry x="680" y="470" width="370" height="40" as="geometry" />
        </mxCell>
        <mxCell id="vUgTNQP78ihkGe0Klj-O-6" value="&lt;i&gt;&quot;Only communicate between apps using xyz system&quot;&lt;/i&gt;" style="rounded=0;whiteSpace=wrap;html=1;fontSize=15;fontColor=#000000;align=center;" vertex="1" parent="TiCRVs4qSI-DCDPuVoD1-1">
          <mxGeometry x="680" y="520" width="370" height="40" as="geometry" />
        </mxCell>
      </root>
    </mxGraphModel>
  </diagram>
  <diagram id="lKeh5sjSgTUEPUjXvz2M" name="08 - reqs">
    <mxGraphModel dx="601" dy="370" grid="1" gridSize="10" guides="1" tooltips="1" connect="1" arrows="1" fold="1" page="1" pageScale="1" pageWidth="1920" pageHeight="1200" math="0" shadow="0">
      <root>
        <mxCell id="5v5hXJa0DjrjJyM2HglI-0" />
        <mxCell id="5v5hXJa0DjrjJyM2HglI-1" parent="5v5hXJa0DjrjJyM2HglI-0" />
        <mxCell id="5v5hXJa0DjrjJyM2HglI-2" value="Zero coupling between child projects" style="rounded=0;whiteSpace=wrap;html=1;fontSize=17;align=center;fillColor=#dae8fc;strokeColor=#6c8ebf;" vertex="1" parent="5v5hXJa0DjrjJyM2HglI-1">
          <mxGeometry x="555" y="330" width="430" height="50" as="geometry" />
        </mxCell>
        <mxCell id="5v5hXJa0DjrjJyM2HglI-3" value="Inflexible Requirement #1" style="text;html=1;strokeColor=none;fillColor=none;align=center;verticalAlign=middle;whiteSpace=wrap;rounded=0;fontSize=23;fontColor=#000000;fontStyle=1" vertex="1" parent="5v5hXJa0DjrjJyM2HglI-1">
          <mxGeometry x="596.25" y="290" width="347.5" height="30" as="geometry" />
        </mxCell>
        <mxCell id="Q2y6-lnuDz6xKTZCXnyH-1" value="No importing of functions/objects/classes/etc" style="rounded=0;whiteSpace=wrap;html=1;fontSize=17;fontColor=#333333;align=center;fillColor=#f5f5f5;strokeColor=#666666;" vertex="1" parent="5v5hXJa0DjrjJyM2HglI-1">
          <mxGeometry x="555" y="410" width="430" height="40" as="geometry" />
        </mxCell>
        <mxCell id="Q2y6-lnuDz6xKTZCXnyH-3" value="No shared state" style="rounded=0;whiteSpace=wrap;html=1;fontSize=17;fontColor=#333333;align=center;fillColor=#f5f5f5;strokeColor=#666666;" vertex="1" parent="5v5hXJa0DjrjJyM2HglI-1">
          <mxGeometry x="555" y="460" width="430" height="40" as="geometry" />
        </mxCell>
        <mxCell id="pfYARvjaqMx_WlaXzbQ0-0" value="Shared libraries through MF is ok" style="rounded=0;whiteSpace=wrap;html=1;fontSize=17;fontColor=#333333;align=center;fillColor=#f5f5f5;strokeColor=#666666;" vertex="1" parent="5v5hXJa0DjrjJyM2HglI-1">
          <mxGeometry x="555" y="510" width="430" height="40" as="geometry" />
        </mxCell>
      </root>
    </mxGraphModel>
  </diagram>
  <diagram name="09 - why" id="CjjzuOFBCSTxpHCQ8Qdf">
    <mxGraphModel dx="501" dy="309" grid="1" gridSize="10" guides="1" tooltips="1" connect="1" arrows="1" fold="1" page="1" pageScale="1" pageWidth="1920" pageHeight="1200" math="0" shadow="0">
      <root>
        <mxCell id="1t4qNDvl3OD2N09Oi_ec-0" />
        <mxCell id="1t4qNDvl3OD2N09Oi_ec-1" parent="1t4qNDvl3OD2N09Oi_ec-0" />
        <mxCell id="cjZ3sejChj89Jv4etDWa-0" value="Marketing" style="rounded=0;whiteSpace=wrap;html=1;fontSize=23;align=center;fillColor=#dae8fc;strokeColor=#6c8ebf;fontStyle=0" vertex="1" parent="1t4qNDvl3OD2N09Oi_ec-1">
          <mxGeometry x="575" y="420" width="140" height="90" as="geometry" />
        </mxCell>
        <mxCell id="cjZ3sejChj89Jv4etDWa-1" value="Authentication" style="rounded=0;whiteSpace=wrap;html=1;fontSize=23;align=center;fillColor=#d5e8d4;strokeColor=#82b366;fontStyle=0" vertex="1" parent="1t4qNDvl3OD2N09Oi_ec-1">
          <mxGeometry x="775" y="420" width="150" height="90" as="geometry" />
        </mxCell>
        <mxCell id="cjZ3sejChj89Jv4etDWa-2" value="Dashboard" style="rounded=0;whiteSpace=wrap;html=1;fontSize=23;align=center;fillColor=#ffe6cc;strokeColor=#d79b00;fontStyle=0" vertex="1" parent="1t4qNDvl3OD2N09Oi_ec-1">
          <mxGeometry x="977.5" y="420" width="160" height="90" as="geometry" />
        </mxCell>
        <mxCell id="cjZ3sejChj89Jv4etDWa-3" style="edgeStyle=orthogonalEdgeStyle;rounded=0;orthogonalLoop=1;jettySize=auto;html=1;exitX=0.5;exitY=1;exitDx=0;exitDy=0;fontSize=17;fontColor=#000000;" edge="1" parent="1t4qNDvl3OD2N09Oi_ec-1" source="cjZ3sejChj89Jv4etDWa-6" target="cjZ3sejChj89Jv4etDWa-0">
          <mxGeometry relative="1" as="geometry" />
        </mxCell>
        <mxCell id="cjZ3sejChj89Jv4etDWa-4" style="edgeStyle=orthogonalEdgeStyle;rounded=0;orthogonalLoop=1;jettySize=auto;html=1;exitX=0.5;exitY=1;exitDx=0;exitDy=0;fontSize=17;fontColor=#000000;" edge="1" parent="1t4qNDvl3OD2N09Oi_ec-1" source="cjZ3sejChj89Jv4etDWa-6" target="cjZ3sejChj89Jv4etDWa-1">
          <mxGeometry relative="1" as="geometry" />
        </mxCell>
        <mxCell id="cjZ3sejChj89Jv4etDWa-5" style="edgeStyle=orthogonalEdgeStyle;rounded=0;orthogonalLoop=1;jettySize=auto;html=1;exitX=0.5;exitY=1;exitDx=0;exitDy=0;fontSize=17;fontColor=#000000;" edge="1" parent="1t4qNDvl3OD2N09Oi_ec-1" source="cjZ3sejChj89Jv4etDWa-6" target="cjZ3sejChj89Jv4etDWa-2">
          <mxGeometry relative="1" as="geometry" />
        </mxCell>
        <mxCell id="cjZ3sejChj89Jv4etDWa-6" value="Container" style="rounded=0;whiteSpace=wrap;html=1;fontSize=23;align=center;fillColor=#e1d5e7;strokeColor=#9673a6;fontStyle=0" vertex="1" parent="1t4qNDvl3OD2N09Oi_ec-1">
          <mxGeometry x="722.5" y="290" width="255" height="50" as="geometry" />
        </mxCell>
        <mxCell id="cjZ3sejChj89Jv4etDWa-7" value="React" style="text;html=1;strokeColor=none;fillColor=none;align=center;verticalAlign=middle;whiteSpace=wrap;rounded=0;fontSize=25;fontColor=#000000;fontStyle=1" vertex="1" parent="1t4qNDvl3OD2N09Oi_ec-1">
          <mxGeometry x="780" y="264" width="140" height="20" as="geometry" />
        </mxCell>
        <mxCell id="cjZ3sejChj89Jv4etDWa-8" value="React" style="text;html=1;strokeColor=none;fillColor=none;align=center;verticalAlign=middle;whiteSpace=wrap;rounded=0;fontSize=25;fontColor=#000000;fontStyle=1" vertex="1" parent="1t4qNDvl3OD2N09Oi_ec-1">
          <mxGeometry x="590" y="520" width="110" height="20" as="geometry" />
        </mxCell>
        <mxCell id="cjZ3sejChj89Jv4etDWa-9" value="React" style="text;html=1;strokeColor=none;fillColor=none;align=center;verticalAlign=middle;whiteSpace=wrap;rounded=0;fontSize=25;fontColor=#000000;fontStyle=1" vertex="1" parent="1t4qNDvl3OD2N09Oi_ec-1">
          <mxGeometry x="780" y="520" width="140" height="20" as="geometry" />
        </mxCell>
        <mxCell id="cjZ3sejChj89Jv4etDWa-10" value="Vue&amp;nbsp;" style="text;html=1;strokeColor=none;fillColor=none;align=center;verticalAlign=middle;whiteSpace=wrap;rounded=0;fontSize=25;fontColor=#000000;fontStyle=1" vertex="1" parent="1t4qNDvl3OD2N09Oi_ec-1">
          <mxGeometry x="987.5" y="520" width="140" height="20" as="geometry" />
        </mxCell>
      </root>
    </mxGraphModel>
  </diagram>
  <diagram name="10 - why" id="AMyPGp-Osc2-mQY4FYMx">
    <mxGraphModel dx="601" dy="370" grid="1" gridSize="10" guides="1" tooltips="1" connect="1" arrows="1" fold="1" page="1" pageScale="1" pageWidth="1920" pageHeight="1200" math="0" shadow="0">
      <root>
        <mxCell id="CBSCwWN5TS3sRLL0Uqg8-0" />
        <mxCell id="CBSCwWN5TS3sRLL0Uqg8-1" parent="CBSCwWN5TS3sRLL0Uqg8-0" />
        <mxCell id="CBSCwWN5TS3sRLL0Uqg8-16" style="edgeStyle=orthogonalEdgeStyle;rounded=0;orthogonalLoop=1;jettySize=auto;html=1;exitX=1;exitY=0.25;exitDx=0;exitDy=0;entryX=0;entryY=0.25;entryDx=0;entryDy=0;strokeWidth=5;fontSize=15;fontColor=#000000;" edge="1" parent="CBSCwWN5TS3sRLL0Uqg8-1" source="CBSCwWN5TS3sRLL0Uqg8-2" target="CBSCwWN5TS3sRLL0Uqg8-3">
          <mxGeometry relative="1" as="geometry" />
        </mxCell>
        <mxCell id="CBSCwWN5TS3sRLL0Uqg8-2" value="Marketing" style="rounded=0;whiteSpace=wrap;html=1;fontSize=23;align=center;fillColor=#dae8fc;strokeColor=#6c8ebf;fontStyle=0" vertex="1" parent="CBSCwWN5TS3sRLL0Uqg8-1">
          <mxGeometry x="575" y="420" width="140" height="90" as="geometry" />
        </mxCell>
        <mxCell id="CBSCwWN5TS3sRLL0Uqg8-17" style="edgeStyle=orthogonalEdgeStyle;rounded=0;orthogonalLoop=1;jettySize=auto;html=1;exitX=0;exitY=0.75;exitDx=0;exitDy=0;entryX=1;entryY=0.75;entryDx=0;entryDy=0;strokeWidth=5;fontSize=15;fontColor=#000000;" edge="1" parent="CBSCwWN5TS3sRLL0Uqg8-1" source="CBSCwWN5TS3sRLL0Uqg8-3" target="CBSCwWN5TS3sRLL0Uqg8-2">
          <mxGeometry relative="1" as="geometry" />
        </mxCell>
        <mxCell id="CBSCwWN5TS3sRLL0Uqg8-3" value="Authentication" style="rounded=0;whiteSpace=wrap;html=1;fontSize=23;align=center;fillColor=#d5e8d4;strokeColor=#82b366;fontStyle=0" vertex="1" parent="CBSCwWN5TS3sRLL0Uqg8-1">
          <mxGeometry x="775" y="420" width="150" height="90" as="geometry" />
        </mxCell>
        <mxCell id="CBSCwWN5TS3sRLL0Uqg8-4" value="Dashboard" style="rounded=0;whiteSpace=wrap;html=1;fontSize=23;align=center;fillColor=#ffe6cc;strokeColor=#d79b00;fontStyle=0" vertex="1" parent="CBSCwWN5TS3sRLL0Uqg8-1">
          <mxGeometry x="977.5" y="420" width="160" height="90" as="geometry" />
        </mxCell>
        <mxCell id="CBSCwWN5TS3sRLL0Uqg8-5" style="edgeStyle=orthogonalEdgeStyle;rounded=0;orthogonalLoop=1;jettySize=auto;html=1;exitX=0.5;exitY=1;exitDx=0;exitDy=0;fontSize=17;fontColor=#000000;" edge="1" parent="CBSCwWN5TS3sRLL0Uqg8-1" source="CBSCwWN5TS3sRLL0Uqg8-8" target="CBSCwWN5TS3sRLL0Uqg8-2">
          <mxGeometry relative="1" as="geometry" />
        </mxCell>
        <mxCell id="CBSCwWN5TS3sRLL0Uqg8-6" style="edgeStyle=orthogonalEdgeStyle;rounded=0;orthogonalLoop=1;jettySize=auto;html=1;exitX=0.5;exitY=1;exitDx=0;exitDy=0;fontSize=17;fontColor=#000000;" edge="1" parent="CBSCwWN5TS3sRLL0Uqg8-1" source="CBSCwWN5TS3sRLL0Uqg8-8" target="CBSCwWN5TS3sRLL0Uqg8-3">
          <mxGeometry relative="1" as="geometry" />
        </mxCell>
        <mxCell id="CBSCwWN5TS3sRLL0Uqg8-7" style="edgeStyle=orthogonalEdgeStyle;rounded=0;orthogonalLoop=1;jettySize=auto;html=1;exitX=0.5;exitY=1;exitDx=0;exitDy=0;fontSize=17;fontColor=#000000;" edge="1" parent="CBSCwWN5TS3sRLL0Uqg8-1" source="CBSCwWN5TS3sRLL0Uqg8-8" target="CBSCwWN5TS3sRLL0Uqg8-4">
          <mxGeometry relative="1" as="geometry" />
        </mxCell>
        <mxCell id="CBSCwWN5TS3sRLL0Uqg8-8" value="Container" style="rounded=0;whiteSpace=wrap;html=1;fontSize=23;align=center;fillColor=#e1d5e7;strokeColor=#9673a6;fontStyle=0" vertex="1" parent="CBSCwWN5TS3sRLL0Uqg8-1">
          <mxGeometry x="722.5" y="290" width="255" height="50" as="geometry" />
        </mxCell>
        <mxCell id="CBSCwWN5TS3sRLL0Uqg8-9" value="React" style="text;html=1;strokeColor=none;fillColor=none;align=center;verticalAlign=middle;whiteSpace=wrap;rounded=0;fontSize=25;fontColor=#000000;fontStyle=1" vertex="1" parent="CBSCwWN5TS3sRLL0Uqg8-1">
          <mxGeometry x="780" y="264" width="140" height="20" as="geometry" />
        </mxCell>
        <mxCell id="CBSCwWN5TS3sRLL0Uqg8-10" value="Flubber" style="text;html=1;strokeColor=none;fillColor=none;align=center;verticalAlign=middle;whiteSpace=wrap;rounded=0;fontSize=25;fontColor=#000000;fontStyle=1" vertex="1" parent="CBSCwWN5TS3sRLL0Uqg8-1">
          <mxGeometry x="590" y="430" width="110" height="20" as="geometry" />
        </mxCell>
        <mxCell id="CBSCwWN5TS3sRLL0Uqg8-11" value="React" style="text;html=1;strokeColor=none;fillColor=none;align=center;verticalAlign=middle;whiteSpace=wrap;rounded=0;fontSize=25;fontColor=#000000;fontStyle=1" vertex="1" parent="CBSCwWN5TS3sRLL0Uqg8-1">
          <mxGeometry x="785" y="430" width="140" height="20" as="geometry" />
        </mxCell>
        <mxCell id="CBSCwWN5TS3sRLL0Uqg8-12" value="Vue&amp;nbsp;" style="text;html=1;strokeColor=none;fillColor=none;align=center;verticalAlign=middle;whiteSpace=wrap;rounded=0;fontSize=25;fontColor=#000000;fontStyle=1" vertex="1" parent="CBSCwWN5TS3sRLL0Uqg8-1">
          <mxGeometry x="987.5" y="520" width="140" height="20" as="geometry" />
        </mxCell>
        <mxCell id="CBSCwWN5TS3sRLL0Uqg8-14" style="edgeStyle=orthogonalEdgeStyle;rounded=0;orthogonalLoop=1;jettySize=auto;html=1;exitX=0.5;exitY=0;exitDx=0;exitDy=0;strokeWidth=5;fontSize=15;fontColor=#000000;" edge="1" parent="CBSCwWN5TS3sRLL0Uqg8-1" source="CBSCwWN5TS3sRLL0Uqg8-13" target="CBSCwWN5TS3sRLL0Uqg8-2">
          <mxGeometry relative="1" as="geometry" />
        </mxCell>
        <mxCell id="CBSCwWN5TS3sRLL0Uqg8-15" style="edgeStyle=orthogonalEdgeStyle;rounded=0;orthogonalLoop=1;jettySize=auto;html=1;exitX=0.5;exitY=0;exitDx=0;exitDy=0;strokeWidth=5;fontSize=15;fontColor=#000000;" edge="1" parent="CBSCwWN5TS3sRLL0Uqg8-1" source="CBSCwWN5TS3sRLL0Uqg8-13" target="CBSCwWN5TS3sRLL0Uqg8-3">
          <mxGeometry relative="1" as="geometry" />
        </mxCell>
        <mxCell id="CBSCwWN5TS3sRLL0Uqg8-13" value="In 5-10 years, you are going to want to replace Marketing without having to touch Authentication" style="rounded=0;whiteSpace=wrap;html=1;fontSize=23;align=center;fillColor=#f8cecc;strokeColor=#b85450;fontStyle=0" vertex="1" parent="CBSCwWN5TS3sRLL0Uqg8-1">
          <mxGeometry x="575" y="580" width="355" height="90" as="geometry" />
        </mxCell>
      </root>
    </mxGraphModel>
  </diagram>
  <diagram name="10 - why" id="NGgSM09EGZCkcZ-FONgJ">
    <mxGraphModel dx="501" dy="309" grid="1" gridSize="10" guides="1" tooltips="1" connect="1" arrows="1" fold="1" page="1" pageScale="1" pageWidth="1920" pageHeight="1200" math="0" shadow="0">
      <root>
        <mxCell id="PNrHV2LzzUw0AkP23dDY-0" />
        <mxCell id="PNrHV2LzzUw0AkP23dDY-1" parent="PNrHV2LzzUw0AkP23dDY-0" />
        <mxCell id="PNrHV2LzzUw0AkP23dDY-13" value="Eventually we&#39;ll all forget about how React works" style="rounded=0;whiteSpace=wrap;html=1;fontSize=24;align=center;fillColor=#f8cecc;strokeColor=#b85450;fontStyle=1" vertex="1" parent="PNrHV2LzzUw0AkP23dDY-1">
          <mxGeometry x="590" y="390" width="350" height="80" as="geometry" />
        </mxCell>
        <mxCell id="PNrHV2LzzUw0AkP23dDY-14" value="Real Reason We&#39;re Using Microfrontends" style="text;html=1;strokeColor=none;fillColor=none;align=center;verticalAlign=middle;whiteSpace=wrap;rounded=0;fontSize=15;fontColor=#000000;" vertex="1" parent="PNrHV2LzzUw0AkP23dDY-1">
          <mxGeometry x="677.5" y="360" width="175" height="20" as="geometry" />
        </mxCell>
      </root>
    </mxGraphModel>
  </diagram>
  <diagram id="jBRMCoG0ukEio9dRJb0W" name="10 - cont">
    <mxGraphModel dx="601" dy="370" grid="1" gridSize="10" guides="1" tooltips="1" connect="1" arrows="1" fold="1" page="1" pageScale="1" pageWidth="1920" pageHeight="1200" math="0" shadow="0">
      <root>
        <mxCell id="K5tnIEByPffXFkB6Jc7C-0" />
        <mxCell id="K5tnIEByPffXFkB6Jc7C-1" parent="K5tnIEByPffXFkB6Jc7C-0" />
        <mxCell id="K5tnIEByPffXFkB6Jc7C-2" value="Near-zero coupling between container and child apps" style="rounded=0;whiteSpace=wrap;html=1;fontSize=17;align=center;fillColor=#dae8fc;strokeColor=#6c8ebf;" vertex="1" parent="K5tnIEByPffXFkB6Jc7C-1">
          <mxGeometry x="555" y="330" width="430" height="50" as="geometry" />
        </mxCell>
        <mxCell id="K5tnIEByPffXFkB6Jc7C-3" value="Inflexible Requirement #2" style="text;html=1;strokeColor=none;fillColor=none;align=center;verticalAlign=middle;whiteSpace=wrap;rounded=0;fontSize=23;fontColor=#000000;fontStyle=1" vertex="1" parent="K5tnIEByPffXFkB6Jc7C-1">
          <mxGeometry x="596.25" y="290" width="347.5" height="30" as="geometry" />
        </mxCell>
        <mxCell id="7Waj4Xeuz_FVs518_ZgK-0" value="Container shouldn&#39;t assume that a child is using a particular framework" style="rounded=0;whiteSpace=wrap;html=1;fontSize=17;fontColor=#333333;align=center;fillColor=#f5f5f5;strokeColor=#666666;" vertex="1" parent="K5tnIEByPffXFkB6Jc7C-1">
          <mxGeometry x="555" y="410" width="430" height="50" as="geometry" />
        </mxCell>
        <mxCell id="lfBtERTj9Xl0VJ35hgZS-0" value="Any necessary communication done with callbacks or simple events" style="rounded=0;whiteSpace=wrap;html=1;fontSize=17;fontColor=#333333;align=center;fillColor=#f5f5f5;strokeColor=#666666;" vertex="1" parent="K5tnIEByPffXFkB6Jc7C-1">
          <mxGeometry x="555" y="470" width="430" height="50" as="geometry" />
        </mxCell>
      </root>
    </mxGraphModel>
  </diagram>
  <diagram id="No7-Sj2pbgsZEHgPaxMZ" name="11 - version">
    <mxGraphModel dx="501" dy="309" grid="1" gridSize="10" guides="1" tooltips="1" connect="1" arrows="1" fold="1" page="1" pageScale="1" pageWidth="1920" pageHeight="1200" math="0" shadow="0">
      <root>
        <mxCell id="FoDsfRZzJ3UqY0JlbKVz-0" />
        <mxCell id="FoDsfRZzJ3UqY0JlbKVz-1" parent="FoDsfRZzJ3UqY0JlbKVz-0" />
        <mxCell id="FoDsfRZzJ3UqY0JlbKVz-2" value="CSS from one project shouldn&#39;t affect another" style="rounded=0;whiteSpace=wrap;html=1;fontSize=17;align=center;fillColor=#dae8fc;strokeColor=#6c8ebf;" vertex="1" parent="FoDsfRZzJ3UqY0JlbKVz-1">
          <mxGeometry x="555" y="330" width="430" height="50" as="geometry" />
        </mxCell>
        <mxCell id="FoDsfRZzJ3UqY0JlbKVz-3" value="Inflexible Requirement #3" style="text;html=1;strokeColor=none;fillColor=none;align=center;verticalAlign=middle;whiteSpace=wrap;rounded=0;fontSize=23;fontColor=#000000;fontStyle=1" vertex="1" parent="FoDsfRZzJ3UqY0JlbKVz-1">
          <mxGeometry x="596.25" y="290" width="347.5" height="30" as="geometry" />
        </mxCell>
      </root>
    </mxGraphModel>
  </diagram>
  <diagram name="13 - repo" id="uMufTiq_8fyS3yT3BVz3">
    <mxGraphModel dx="578" dy="356" grid="1" gridSize="10" guides="1" tooltips="1" connect="1" arrows="1" fold="1" page="1" pageScale="1" pageWidth="1920" pageHeight="1200" math="0" shadow="0">
      <root>
        <mxCell id="x7OhgAfxRNHzQweUsnGc-0" />
        <mxCell id="x7OhgAfxRNHzQweUsnGc-1" parent="x7OhgAfxRNHzQweUsnGc-0" />
        <mxCell id="x7OhgAfxRNHzQweUsnGc-2" value="Version control (monorepo vs separate) shouldn&#39;t have any impact on the overall project" style="rounded=0;whiteSpace=wrap;html=1;fontSize=17;align=center;fillColor=#dae8fc;strokeColor=#6c8ebf;" vertex="1" parent="x7OhgAfxRNHzQweUsnGc-1">
          <mxGeometry x="555" y="330" width="430" height="70" as="geometry" />
        </mxCell>
        <mxCell id="x7OhgAfxRNHzQweUsnGc-3" value="Inflexible Requirement #4" style="text;html=1;strokeColor=none;fillColor=none;align=center;verticalAlign=middle;whiteSpace=wrap;rounded=0;fontSize=23;fontColor=#000000;fontStyle=1" vertex="1" parent="x7OhgAfxRNHzQweUsnGc-1">
          <mxGeometry x="596.25" y="290" width="347.5" height="30" as="geometry" />
        </mxCell>
        <mxCell id="x7OhgAfxRNHzQweUsnGc-4" value="Some people want to use monorepos" style="rounded=0;whiteSpace=wrap;html=1;fontSize=15;fontColor=#333333;align=center;fillColor=#f5f5f5;strokeColor=#666666;" vertex="1" parent="x7OhgAfxRNHzQweUsnGc-1">
          <mxGeometry x="510" y="410" width="430" height="50" as="geometry" />
        </mxCell>
        <mxCell id="x7OhgAfxRNHzQweUsnGc-5" value="Some people want to keep everything in a separate repo" style="rounded=0;whiteSpace=wrap;html=1;fontSize=15;fontColor=#333333;align=center;fillColor=#f5f5f5;strokeColor=#666666;" vertex="1" parent="x7OhgAfxRNHzQweUsnGc-1">
          <mxGeometry x="640" y="490" width="430" height="50" as="geometry" />
        </mxCell>
      </root>
    </mxGraphModel>
  </diagram>
  <diagram name="12 - version" id="aLd-EYcKlehZWiNXN7CM">
    <mxGraphModel dx="518" dy="319" grid="1" gridSize="10" guides="1" tooltips="1" connect="1" arrows="1" fold="1" page="1" pageScale="1" pageWidth="1920" pageHeight="1200" math="0" shadow="0">
      <root>
        <mxCell id="OoEdVuaQEiTEPJ83GuvO-0" />
        <mxCell id="OoEdVuaQEiTEPJ83GuvO-1" parent="OoEdVuaQEiTEPJ83GuvO-0" />
        <mxCell id="OoEdVuaQEiTEPJ83GuvO-2" value="Container should be able to decide to always use the latest version of a microfrontend &lt;b style=&quot;font-style: italic&quot;&gt;or &lt;/b&gt;specify a specific version&amp;nbsp;" style="rounded=0;whiteSpace=wrap;html=1;fontSize=17;align=center;fillColor=#dae8fc;strokeColor=#6c8ebf;" vertex="1" parent="OoEdVuaQEiTEPJ83GuvO-1">
          <mxGeometry x="555" y="330" width="430" height="70" as="geometry" />
        </mxCell>
        <mxCell id="OoEdVuaQEiTEPJ83GuvO-3" value="Inflexible Requirement #5" style="text;html=1;strokeColor=none;fillColor=none;align=center;verticalAlign=middle;whiteSpace=wrap;rounded=0;fontSize=23;fontColor=#000000;fontStyle=1" vertex="1" parent="OoEdVuaQEiTEPJ83GuvO-1">
          <mxGeometry x="596.25" y="290" width="347.5" height="30" as="geometry" />
        </mxCell>
        <mxCell id="pPBWja9EGEkZw0Na255x-1" value="(1) Container will always use the latest version of a child app (doesn&#39;t require a redeploy of container)" style="rounded=0;whiteSpace=wrap;html=1;fontSize=15;fontColor=#333333;align=center;fillColor=#f5f5f5;strokeColor=#666666;" vertex="1" parent="OoEdVuaQEiTEPJ83GuvO-1">
          <mxGeometry x="555" y="410" width="430" height="50" as="geometry" />
        </mxCell>
        <mxCell id="pPBWja9EGEkZw0Na255x-2" value="(2) Container can specify exactly what version of a child it wants to use (requires a redeploy to change)" style="rounded=0;whiteSpace=wrap;html=1;fontSize=15;fontColor=#333333;align=center;fillColor=#f5f5f5;strokeColor=#666666;" vertex="1" parent="OoEdVuaQEiTEPJ83GuvO-1">
          <mxGeometry x="555" y="470" width="430" height="50" as="geometry" />
        </mxCell>
      </root>
    </mxGraphModel>
  </diagram>
  <diagram id="omfuvlvonQdcLH8MrR15" name="19 - why">
    <mxGraphModel dx="417" dy="257" grid="1" gridSize="10" guides="1" tooltips="1" connect="1" arrows="1" fold="1" page="1" pageScale="1" pageWidth="1920" pageHeight="1200" math="0" shadow="0">
      <root>
        <mxCell id="3tGnaik1NuqjRjV5Srt4-0" />
        <mxCell id="3tGnaik1NuqjRjV5Srt4-1" parent="3tGnaik1NuqjRjV5Srt4-0" />
        <mxCell id="3tGnaik1NuqjRjV5Srt4-4" style="edgeStyle=orthogonalEdgeStyle;rounded=0;orthogonalLoop=1;jettySize=auto;html=1;exitX=0.5;exitY=1;exitDx=0;exitDy=0;strokeWidth=1;fontSize=15;fontColor=#000000;" edge="1" parent="3tGnaik1NuqjRjV5Srt4-1" source="3tGnaik1NuqjRjV5Srt4-2" target="3tGnaik1NuqjRjV5Srt4-3">
          <mxGeometry relative="1" as="geometry" />
        </mxCell>
        <mxCell id="3tGnaik1NuqjRjV5Srt4-2" value="We are setting up all projects from scratch" style="rounded=0;whiteSpace=wrap;html=1;fontSize=15;align=center;fontStyle=1;fillColor=#dae8fc;strokeColor=#6c8ebf;" vertex="1" parent="3tGnaik1NuqjRjV5Srt4-1">
          <mxGeometry x="600" y="350" width="350" height="60" as="geometry" />
        </mxCell>
        <mxCell id="3tGnaik1NuqjRjV5Srt4-3" value="Why no Create-React-App or Vue CLI?" style="rounded=0;whiteSpace=wrap;html=1;fontSize=15;align=center;fontStyle=1;fillColor=#f5f5f5;strokeColor=#666666;fontColor=#333333;" vertex="1" parent="3tGnaik1NuqjRjV5Srt4-1">
          <mxGeometry x="600" y="460" width="350" height="60" as="geometry" />
        </mxCell>
      </root>
    </mxGraphModel>
  </diagram>
  <diagram id="4i5_r7i2W_ME_r5oknMT" name="18 - webpack">
    <mxGraphModel dx="601" dy="370" grid="1" gridSize="10" guides="1" tooltips="1" connect="1" arrows="1" fold="1" page="1" pageScale="1" pageWidth="1920" pageHeight="1200" math="0" shadow="0">
      <root>
        <mxCell id="3n8rwsSmoNytDQNMd-b_-0" />
        <mxCell id="3n8rwsSmoNytDQNMd-b_-1" parent="3n8rwsSmoNytDQNMd-b_-0" />
        <mxCell id="3n8rwsSmoNytDQNMd-b_-2" value="Webpack Config for &lt;br&gt;&lt;b&gt;Production&lt;/b&gt;" style="rounded=0;whiteSpace=wrap;html=1;fontSize=15;align=center;fillColor=#dae8fc;strokeColor=#6c8ebf;" vertex="1" parent="3n8rwsSmoNytDQNMd-b_-1">
          <mxGeometry x="860" y="430" width="150" height="60" as="geometry" />
        </mxCell>
        <mxCell id="3n8rwsSmoNytDQNMd-b_-7" style="edgeStyle=orthogonalEdgeStyle;rounded=0;orthogonalLoop=1;jettySize=auto;html=1;exitX=0.5;exitY=1;exitDx=0;exitDy=0;strokeWidth=1;fontSize=15;fontColor=#000000;" edge="1" parent="3n8rwsSmoNytDQNMd-b_-1" source="3n8rwsSmoNytDQNMd-b_-3" target="3n8rwsSmoNytDQNMd-b_-6">
          <mxGeometry relative="1" as="geometry" />
        </mxCell>
        <mxCell id="3n8rwsSmoNytDQNMd-b_-3" value="Webpack Config for &lt;br&gt;&lt;b&gt;Development&lt;/b&gt;" style="rounded=0;whiteSpace=wrap;html=1;fontSize=15;align=center;fillColor=#dae8fc;strokeColor=#6c8ebf;" vertex="1" parent="3n8rwsSmoNytDQNMd-b_-1">
          <mxGeometry x="670" y="430" width="150" height="60" as="geometry" />
        </mxCell>
        <mxCell id="3n8rwsSmoNytDQNMd-b_-10" style="edgeStyle=orthogonalEdgeStyle;rounded=0;orthogonalLoop=1;jettySize=auto;html=1;exitX=0.5;exitY=1;exitDx=0;exitDy=0;strokeWidth=1;fontSize=15;fontColor=#000000;" edge="1" parent="3n8rwsSmoNytDQNMd-b_-1" source="3n8rwsSmoNytDQNMd-b_-4" target="3n8rwsSmoNytDQNMd-b_-3">
          <mxGeometry relative="1" as="geometry" />
        </mxCell>
        <mxCell id="3n8rwsSmoNytDQNMd-b_-11" style="edgeStyle=orthogonalEdgeStyle;rounded=0;orthogonalLoop=1;jettySize=auto;html=1;exitX=0.5;exitY=1;exitDx=0;exitDy=0;strokeWidth=1;fontSize=15;fontColor=#000000;" edge="1" parent="3n8rwsSmoNytDQNMd-b_-1" source="3n8rwsSmoNytDQNMd-b_-4" target="3n8rwsSmoNytDQNMd-b_-2">
          <mxGeometry relative="1" as="geometry" />
        </mxCell>
        <mxCell id="3n8rwsSmoNytDQNMd-b_-4" value="Webpack Config common to both &lt;b&gt;Development &lt;/b&gt;&lt;br&gt;&lt;b&gt;and &lt;br&gt;Production&lt;/b&gt;" style="rounded=0;whiteSpace=wrap;html=1;fontSize=15;align=center;fillColor=#dae8fc;strokeColor=#6c8ebf;" vertex="1" parent="3n8rwsSmoNytDQNMd-b_-1">
          <mxGeometry x="770" y="280" width="150" height="100" as="geometry" />
        </mxCell>
        <mxCell id="3n8rwsSmoNytDQNMd-b_-6" value="&amp;lt;output&amp;gt;" style="shape=document;whiteSpace=wrap;html=1;boundedLbl=1;fontSize=15;fontColor=#000000;align=center;fontStyle=2" vertex="1" parent="3n8rwsSmoNytDQNMd-b_-1">
          <mxGeometry x="682.5" y="530" width="125" height="50" as="geometry" />
        </mxCell>
        <mxCell id="3n8rwsSmoNytDQNMd-b_-8" style="edgeStyle=orthogonalEdgeStyle;rounded=0;orthogonalLoop=1;jettySize=auto;html=1;exitX=0.5;exitY=1;exitDx=0;exitDy=0;strokeWidth=1;fontSize=15;fontColor=#000000;" edge="1" parent="3n8rwsSmoNytDQNMd-b_-1" target="3n8rwsSmoNytDQNMd-b_-9">
          <mxGeometry relative="1" as="geometry">
            <mxPoint x="935" y="490" as="sourcePoint" />
          </mxGeometry>
        </mxCell>
        <mxCell id="3n8rwsSmoNytDQNMd-b_-9" value="&amp;lt;output&amp;gt;" style="shape=document;whiteSpace=wrap;html=1;boundedLbl=1;fontSize=15;fontColor=#000000;align=center;fontStyle=2" vertex="1" parent="3n8rwsSmoNytDQNMd-b_-1">
          <mxGeometry x="872.5" y="530" width="125" height="50" as="geometry" />
        </mxCell>
      </root>
    </mxGraphModel>
  </diagram>
</mxfile>
